<svg width="25" height="25" viewBox="0 0 25 25" fill="none" xmlns="http://www.w3.org/2000/svg">
<g id="Icon / bookmark / Active">
<path id="Vector" fill-rule="evenodd" clip-rule="evenodd" d="M12.6543 22.3555C18.1773 22.3555 22.6543 17.8785 22.6543 12.3555C22.6543 6.83247 18.1773 2.35547 12.6543 2.35547C7.1313 2.35547 2.6543 6.83247 2.6543 12.3555C2.6543 17.8785 7.1313 22.3555 12.6543 22.3555ZM16.6543 14.4015V11.9045C16.6543 9.75947 16.6543 8.68747 16.0683 8.02147C15.4823 7.35547 14.5403 7.35547 12.6543 7.35547C10.7683 7.35547 9.8263 7.35547 9.2403 8.02147C8.6543 8.68747 8.6543 9.75947 8.6543 11.9055V14.4025C8.6543 15.9505 8.6543 16.7245 8.9803 17.0625C9.12901 17.2205 9.32734 17.3228 9.5423 17.3525C9.9803 17.4085 10.4923 16.8995 11.5173 15.8795C11.9703 15.4295 12.1973 15.2035 12.4593 15.1435C12.5877 15.1144 12.7209 15.1144 12.8493 15.1435C13.1113 15.2035 13.3383 15.4285 13.7913 15.8795C14.8153 16.8995 15.3283 17.4095 15.7673 17.3525C15.9815 17.3224 16.1791 17.2201 16.3273 17.0625C16.6543 16.7245 16.6543 15.9505 16.6543 14.4025V14.4015Z" fill="#00B187"/>
</g>
</svg>
