<svg width="21" height="20" viewBox="0 0 21 20" fill="none" xmlns="http://www.w3.org/2000/svg">
<g id="uis:calender">
<path id="Vector" d="M2.16669 15.8332C2.16669 17.2498 3.25002 18.3332 4.66669 18.3332H16.3334C17.75 18.3332 18.8334 17.2498 18.8334 15.8332V9.1665H2.16669V15.8332ZM16.3334 3.33317H14.6667V2.49984C14.6667 1.99984 14.3334 1.6665 13.8334 1.6665C13.3334 1.6665 13 1.99984 13 2.49984V3.33317H8.00002V2.49984C8.00002 1.99984 7.66669 1.6665 7.16669 1.6665C6.66669 1.6665 6.33335 1.99984 6.33335 2.49984V3.33317H4.66669C3.25002 3.33317 2.16669 4.4165 2.16669 5.83317V7.49984H18.8334V5.83317C18.8334 4.4165 17.75 3.33317 16.3334 3.33317Z" fill="#C8C8C8"/>
</g>
</svg>
