<svg width="40" height="40" viewBox="0 0 40 40" fill="none" xmlns="http://www.w3.org/2000/svg">
<g id="Icon / camera">
<path id="Vector" d="M16.25 21.667C16.25 20.6724 16.6451 19.7186 17.3483 19.0153C18.0516 18.3121 19.0054 17.917 20 17.917C20.9946 17.917 21.9484 18.3121 22.6516 19.0153C23.3549 19.7186 23.75 20.6724 23.75 21.667C23.75 22.6616 23.3549 23.6154 22.6516 24.3186C21.9484 25.0219 20.9946 25.417 20 25.417C19.0054 25.417 18.0516 25.0219 17.3483 24.3186C16.6451 23.6154 16.25 22.6616 16.25 21.667Z" fill="#00B187"/>
<path id="Vector_2" fill-rule="evenodd" clip-rule="evenodd" d="M12.4566 12.7367C12.4566 12.049 12.592 11.368 12.8552 10.7327C13.1184 10.0973 13.5041 9.52005 13.9904 9.03378C14.9724 8.05172 16.3044 7.5 17.6933 7.5H22.3066C23.6954 7.5 25.0274 8.05172 26.0095 9.03378C26.9915 10.0158 27.5433 11.3478 27.5433 12.7367C27.5436 12.7486 27.5481 12.76 27.556 12.7688C27.564 12.7777 27.5748 12.7834 27.5866 12.785L31.3033 13.085C32.9683 13.2217 34.3366 14.4517 34.6483 16.0933C35.4406 20.2808 35.4993 24.5741 34.8216 28.7817L34.6599 29.7883C34.5116 30.7107 34.0582 31.5566 33.3723 32.1908C32.6865 32.825 31.8077 33.2109 30.8766 33.2867L27.6383 33.5483C22.5544 33.9613 17.4454 33.9613 12.3616 33.5483L9.12326 33.2867C8.19193 33.2108 7.31297 32.8247 6.62705 32.1901C5.94114 31.5556 5.48792 30.7093 5.33993 29.7867L5.17826 28.7817C4.49993 24.5733 4.55993 20.2817 5.35159 16.0933C5.50297 15.295 5.91224 14.5685 6.51653 14.0253C7.12082 13.4821 7.88672 13.1524 8.69659 13.0867L12.4133 12.785C12.4253 12.7841 12.4366 12.7786 12.4447 12.7696C12.4528 12.7606 12.4571 12.7488 12.4566 12.7367ZM19.9999 15.4167C18.3423 15.4167 16.7526 16.0751 15.5805 17.2472C14.4084 18.4194 13.7499 20.0091 13.7499 21.6667C13.7499 23.3243 14.4084 24.914 15.5805 26.0861C16.7526 27.2582 18.3423 27.9167 19.9999 27.9167C21.6575 27.9167 23.2472 27.2582 24.4193 26.0861C25.5914 24.914 26.2499 23.3243 26.2499 21.6667C26.2499 20.0091 25.5914 18.4194 24.4193 17.2472C23.2472 16.0751 21.6575 15.4167 19.9999 15.4167Z" fill="#00B187"/>
</g>
</svg>
