<svg width="19" height="19" viewBox="0 0 19 19" fill="none" xmlns="http://www.w3.org/2000/svg">
<g id="Icon / Comment/Small">
<path id="Vector" d="M9.83321 14.8471C11.1525 14.8471 12.4423 14.5114 13.5392 13.8827C14.6362 13.2539 15.4912 12.3602 15.9961 11.3146C16.501 10.2689 16.6331 9.11835 16.3757 8.00833C16.1183 6.8983 15.483 5.87867 14.5501 5.07839C13.6172 4.2781 12.4286 3.7331 11.1346 3.5123C9.84061 3.2915 8.49936 3.40482 7.28045 3.83793C6.06154 4.27105 5.01972 5.0045 4.28673 5.94553C3.55375 6.88657 3.16252 7.99293 3.16252 9.1247C3.16252 9.93355 3.35755 10.7029 3.71055 11.4002C3.82311 11.6225 3.84091 11.8842 3.73614 12.1104L2.90782 13.898C2.6438 14.4678 3.15511 15.0904 3.76535 14.9422L6.5262 14.2715C6.68708 14.2324 6.85586 14.2489 7.00948 14.3107C7.86696 14.6553 8.82431 14.8471 9.83321 14.8471Z" stroke="#999999" stroke-width="1.5" stroke-linecap="round" stroke-linejoin="round"/>
</g>
</svg>
