<svg width="70" height="70" viewBox="0 0 70 70" fill="none" xmlns="http://www.w3.org/2000/svg">
<circle cx="35" cy="35" r="33" stroke="#E0E0E0" stroke-width="4"/>
<path d="M39.9464 22.004L41.4673 20.4831C42.6772 19.2733 44.3181 18.5936 46.0291 18.5936C47.74 18.5936 49.381 19.2733 50.5908 20.4831C51.8007 21.693 52.4804 23.3339 52.4804 25.0449C52.4804 26.7559 51.8007 28.3968 50.5908 29.6066L49.07 31.1275M39.9481 22.004C39.9481 22.004 40.1368 25.236 42.9882 28.0858C45.8396 30.9372 49.07 31.1275 49.07 31.1275M39.9464 22.004L36.0746 25.8758L39.9464 22.004ZM49.07 31.1258L40.4403 39.7588L35.3527 44.8431L35.0902 45.1072C34.1419 46.0539 33.6678 46.528 33.146 46.9349C32.5304 47.4155 31.8642 47.8275 31.1593 48.1637C30.5621 48.4476 29.9271 48.6592 28.6557 49.0825L23.2728 50.8773M23.2728 50.8773L21.957 51.317C21.6503 51.4199 21.321 51.4351 21.0061 51.3611C20.6912 51.287 20.4031 51.1266 20.1744 50.8979C19.9457 50.6691 19.7852 50.3811 19.7112 50.0662C19.6372 49.7513 19.6524 49.422 19.7553 49.1153L20.195 47.7995M23.2728 50.8773L20.195 47.7995L23.2728 50.8773ZM20.195 47.7995L21.9898 42.4166C22.4131 41.1451 22.6247 40.5102 22.9085 39.913C23.2449 39.2076 23.6567 38.5415 24.1374 37.9262C24.5443 37.4045 25.0184 36.9304 25.965 35.9837L30.3324 31.618" fill="#787878"/>
<path d="M39.9481 22.004C39.9481 22.004 40.1368 25.236 42.9882 28.0858C45.8396 30.9372 49.07 31.1275 49.07 31.1275L50.5908 29.6066C51.8007 28.3968 52.4804 26.7559 52.4804 25.0449C52.4804 23.3339 51.8007 21.693 50.5908 20.4831C49.381 19.2733 47.74 18.5936 46.0291 18.5936C44.3181 18.5936 42.6772 19.2733 41.4673 20.4831L39.9464 22.004L36.0746 25.8758M49.07 31.1258L40.4403 39.7588L35.3527 44.8431L35.0902 45.1072C34.1419 46.0539 33.6678 46.528 33.146 46.9349C32.5304 47.4155 31.8642 47.8275 31.1593 48.1637C30.5621 48.4476 29.9271 48.6592 28.6557 49.0825L23.2728 50.8773M23.2728 50.8773L21.957 51.317C21.6503 51.4199 21.321 51.4351 21.0061 51.3611C20.6912 51.287 20.4031 51.1266 20.1744 50.8979C19.9457 50.6691 19.7852 50.3811 19.7112 50.0662C19.6372 49.7513 19.6524 49.422 19.7553 49.1153L20.195 47.7995M23.2728 50.8773L20.195 47.7995M20.195 47.7995L21.9898 42.4166C22.4131 41.1451 22.6247 40.5102 22.9085 39.913C23.2449 39.2076 23.6567 38.5415 24.1374 37.9262C24.5443 37.4045 25.0184 36.9304 25.965 35.9837L30.3324 31.618" stroke="black" stroke-width="1.5" stroke-linecap="round"/>
</svg>
