<svg width="116" height="86" viewBox="0 0 116 86" fill="none" xmlns="http://www.w3.org/2000/svg">
<path d="M92.1857 51C92.1857 69.2401 77.5182 84 59.4576 84C41.397 84 26.7295 69.2401 26.7295 51C26.7295 32.7598 41.397 18 59.4576 18C77.5182 18 92.1857 32.7598 92.1857 51Z" stroke="#00C596" stroke-width="4"/>
<path d="M64.5339 38.5841L66.0492 37.057C67.2546 35.8421 68.8895 35.1596 70.5942 35.1596C72.299 35.1596 73.9339 35.8421 75.1393 37.057C76.3447 38.2718 77.0219 39.9195 77.0219 41.6376C77.0219 43.3557 76.3447 45.0034 75.1393 46.2183L73.624 47.7454M64.5355 38.5841C64.5355 38.5841 64.7235 41.8296 67.5645 44.6911C70.4054 47.5543 73.624 47.7454 73.624 47.7454M64.5339 38.5841L60.6762 42.472L64.5339 38.5841ZM73.624 47.7438L65.0259 56.4125L59.9569 61.5179L59.6954 61.7831C58.7506 62.7337 58.2782 63.2098 57.7583 63.6183C57.1449 64.1009 56.4812 64.5146 55.7788 64.8523C55.1838 65.1373 54.5512 65.3498 53.2844 65.7748L47.9212 67.5771M47.9212 67.5771L46.6102 68.0186C46.3046 68.1219 45.9765 68.1372 45.6628 68.0628C45.349 67.9885 45.0621 67.8274 44.8342 67.5977C44.6062 67.368 44.4464 67.0788 44.3727 66.7626C44.2989 66.4464 44.3141 66.1157 44.4166 65.8078L44.8546 64.4865M47.9212 67.5771L44.8546 64.4865L47.9212 67.5771ZM44.8546 64.4865L46.6429 59.0813C47.0646 57.8046 47.2755 57.167 47.5583 56.5674C47.8934 55.859 48.3037 55.1901 48.7826 54.5723C49.188 54.0485 49.6604 53.5724 50.6036 52.6218L54.955 48.238" fill="#00C596"/>
<path d="M64.5355 38.5841C64.5355 38.5841 64.7235 41.8296 67.5645 44.6911C70.4054 47.5543 73.624 47.7454 73.624 47.7454L75.1393 46.2183C76.3447 45.0034 77.0219 43.3557 77.0219 41.6376C77.0219 39.9195 76.3447 38.2718 75.1393 37.057C73.9339 35.8421 72.299 35.1596 70.5942 35.1596C68.8895 35.1596 67.2546 35.8421 66.0492 37.057L64.5339 38.5841L60.6762 42.472M73.624 47.7438L65.0259 56.4125L59.9569 61.5179L59.6954 61.7831C58.7506 62.7337 58.2782 63.2098 57.7583 63.6183C57.1449 64.1009 56.4812 64.5146 55.7788 64.8523C55.1838 65.1373 54.5512 65.3498 53.2844 65.7748L47.9212 67.5771M47.9212 67.5771L46.6102 68.0186C46.3046 68.1219 45.9765 68.1372 45.6628 68.0628C45.349 67.9885 45.0621 67.8274 44.8342 67.5977C44.6062 67.368 44.4464 67.0788 44.3727 66.7626C44.2989 66.4464 44.3141 66.1157 44.4166 65.8078L44.8546 64.4865M47.9212 67.5771L44.8546 64.4865M44.8546 64.4865L46.6429 59.0813C47.0646 57.8046 47.2755 57.167 47.5583 56.5674C47.8934 55.859 48.3037 55.1901 48.7826 54.5723C49.188 54.0485 49.6604 53.5724 50.6036 52.6218L54.955 48.238" stroke="black" stroke-width="1.5" stroke-linecap="round"/>
<rect width="12.8194" height="6.60453" transform="matrix(0.728748 -0.684782 0.679092 0.734053 76.5635 8.77853)" fill="#00FFC0"/>
<rect width="7.81944" height="2.11884" transform="matrix(0.460224 -0.887803 0.884839 0.465897 94.311 20.772)" fill="#00C596"/>
<rect width="7.80837" height="2.12186" transform="matrix(0.626741 0.779227 -0.774423 0.632668 101.518 23.9064)" fill="#EF6E87"/>
<rect width="7.83183" height="5.44344" transform="matrix(-0.0998316 0.995004 -0.994847 -0.101385 109.9 10.71)" fill="#F9CF43"/>
<rect width="10.5941" height="6.35104" transform="matrix(-0.78069 0.624919 -0.61897 -0.785414 116 44.1454)" fill="#EF6E87"/>
<rect width="7.41401" height="4.54258" transform="matrix(-0.75421 0.656633 -0.650794 -0.759254 98.9414 56.7015)" fill="#00FFC0"/>
<rect width="10.9525" height="8.5373" transform="matrix(-0.75421 0.656633 -0.650794 -0.759254 92.8721 32.6049)" fill="#F9CF43"/>
<rect width="8.37811" height="6.32083" transform="matrix(-0.494727 0.869048 -0.865698 -0.500567 62.8545 11.359)" fill="#EF6E87"/>
<rect width="6.05778" height="2.15529" transform="matrix(0.624396 0.781108 -0.776327 0.63033 29.5879 9.67294)" fill="#00FFC0"/>
<rect width="6.07598" height="2.14877" transform="matrix(0.083803 0.996482 -0.996371 0.0851109 38.9219 18.6405)" fill="#F9CF43"/>
<rect width="6.03578" height="2.16311" transform="matrix(0.925887 -0.3778 0.372771 0.927923 0 38.1447)" fill="#00C596"/>
<rect width="8.80673" height="6.30491" transform="matrix(0.255614 0.966779 -0.96578 0.259364 21.1245 14.4048)" fill="#EF6E87"/>
<rect width="13.9986" height="9.83872" transform="matrix(0.695135 0.718879 -0.713438 0.700718 22.022 33.3144)" fill="#00FFC0"/>
<rect width="5.29023" height="3.40858" transform="matrix(0.97341 0.229068 -0.225705 0.974196 4.20459 49.8938)" fill="#F9CF43"/>
</svg>
