<svg width="37" height="38" viewBox="0 0 37 38" fill="none" xmlns="http://www.w3.org/2000/svg">
<path d="M27.4505 8.87223L28.0135 9.43518C28.7892 10.2119 28.6718 11.5887 27.7492 12.5104L16.1399 24.1197L12.3786 25.4956C11.9063 25.6692 11.4464 25.4441 11.3529 24.9946C11.3213 24.8316 11.3362 24.663 11.3958 24.508L12.7985 20.7143L24.3753 9.13653C25.2979 8.21481 26.6748 8.09554 27.4505 8.87223ZM15.6333 10.0268C15.7586 10.0268 15.8826 10.0514 15.9984 10.0994C16.1142 10.1473 16.2194 10.2176 16.308 10.3062C16.3966 10.3948 16.4668 10.5 16.5148 10.6158C16.5627 10.7315 16.5874 10.8556 16.5874 10.9809C16.5874 11.1062 16.5627 11.2303 16.5148 11.3461C16.4668 11.4618 16.3966 11.567 16.308 11.6556C16.2194 11.7442 16.1142 11.8145 15.9984 11.8624C15.8826 11.9104 15.7586 11.9351 15.6333 11.9351H11.8166C11.3105 11.9351 10.8251 12.1361 10.4673 12.494C10.1094 12.8519 9.90832 13.3373 9.90832 13.8434V25.2933C9.90832 25.7994 10.1094 26.2848 10.4673 26.6427C10.8251 27.0006 11.3105 27.2016 11.8166 27.2016H23.2665C23.7727 27.2016 24.258 27.0006 24.6159 26.6427C24.9738 26.2848 25.1749 25.7994 25.1749 25.2933V21.4767C25.1749 21.2236 25.2754 20.9809 25.4543 20.802C25.6333 20.623 25.876 20.5225 26.129 20.5225C26.3821 20.5225 26.6248 20.623 26.8037 20.802C26.9826 20.9809 27.0832 21.2236 27.0832 21.4767V25.2933C27.0832 26.3055 26.6811 27.2763 25.9653 27.9921C25.2495 28.7078 24.2788 29.1099 23.2665 29.1099H11.8166C10.8044 29.1099 9.83362 28.7078 9.11787 27.9921C8.40211 27.2763 8 26.3055 8 25.2933V13.8434C8 12.8312 8.40211 11.8604 9.11787 11.1446C9.83362 10.4289 10.8044 10.0268 11.8166 10.0268H15.6333Z" fill="#E0E0E0"/>
</svg>
