<svg width="24" height="24" viewBox="0 0 24 24" fill="none" xmlns="http://www.w3.org/2000/svg">
<g id="Icon / Famer">
<g id="Group">
<path id="Vector" d="M16.3193 11.1357C16.3193 8.75017 14.3856 6.81641 12 6.81641C9.61443 6.81641 7.68066 8.75017 7.68066 11.1357M7.68066 11.5677C5.09856 12.0877 3.36133 13.0604 3.36133 14.174C3.36133 15.8356 7.22886 17.1828 12 17.1828C16.7711 17.1828 20.6387 15.8356 20.6387 14.174C20.6387 13.0604 18.9014 12.0877 16.3193 11.5677" stroke="#00B187" stroke-width="1.5"/>
<path id="Vector_2" d="M7.67969 11.1358C8.11162 11.4956 9.40742 12.8636 11.999 12.8636C14.5906 12.8636 15.8864 11.5678 16.3184 11.1358M9.83936 12.4316L10.7032 10.272" stroke="#00B187" stroke-width="1.5" stroke-linecap="round" stroke-linejoin="round"/>
</g>
</g>
</svg>
