<svg width="15" height="19" viewBox="0 0 15 19" fill="none" xmlns="http://www.w3.org/2000/svg">
<path fill-rule="evenodd" clip-rule="evenodd" d="M5.71938 0.126953H9.21671C10.3808 0.126953 11.3185 0.126953 12.0563 0.224584C12.8221 0.324718 13.4671 0.541675 13.9794 1.04318C14.4916 1.54552 14.7112 2.17803 14.815 2.92904C14.9137 3.6525 14.9137 4.5729 14.9137 5.7136V12.481C14.9137 13.6217 14.9137 14.5421 14.815 15.2655C14.712 16.0165 14.4916 16.6491 13.9794 17.1514C13.4671 17.6537 12.8221 17.869 12.0563 17.9708C11.3185 18.0676 10.3799 18.0676 9.21671 18.0676H5.71938C4.55616 18.0676 3.61758 18.0676 2.87983 17.9708C2.11399 17.869 1.46898 17.6537 0.956723 17.1514C0.445314 16.6491 0.224923 16.0165 0.12196 15.2655C0.0876861 15.0043 0.0644075 14.7418 0.0521837 14.4787C0.0179657 14.3728 0.0132648 14.2598 0.0385688 14.1516C0.0245415 13.5948 0.0191516 13.0379 0.022401 12.481V5.7136C0.022401 4.5729 0.0224011 3.6525 0.12196 2.92904C0.224072 2.17803 0.445314 1.54552 0.957574 1.04318C1.46898 0.54084 2.11484 0.325552 2.88068 0.224584C3.61758 0.126953 4.55616 0.126953 5.71938 0.126953ZM1.32177 14.3126C1.33454 14.6072 1.35496 14.8667 1.38644 15.0987C1.47069 15.7111 1.6247 16.0349 1.85956 16.266C2.09527 16.4972 2.42628 16.6474 3.05086 16.73C3.69332 16.8143 4.5451 16.816 5.76619 16.816H9.16991C10.3918 16.816 11.2436 16.8143 11.8861 16.73C12.5107 16.6474 12.8408 16.4964 13.0774 16.266C13.3122 16.0349 13.4654 15.7111 13.5497 15.0978C13.6203 14.5846 13.6347 13.9338 13.6364 13.0609H3.97753C3.14532 13.0609 2.8543 13.0659 2.63136 13.1252C2.33113 13.2038 2.05493 13.353 1.82663 13.5597C1.59832 13.7664 1.42475 14.0245 1.32092 14.3118L1.32177 14.3126ZM13.6373 11.8093V5.75949C13.6373 4.56205 13.6364 3.72594 13.5497 3.09593C13.4654 2.48344 13.3114 2.15967 13.0765 1.92853C12.8408 1.69739 12.5107 1.54719 11.8861 1.46458C11.2436 1.3803 10.3918 1.37863 9.16991 1.37863H5.76619C4.99354 1.37863 4.36896 1.37863 3.85159 1.40116V11.8093H8.74444H13.6373ZM2.57519 11.8602C2.47989 11.8743 2.38799 11.8935 2.30034 11.9161C1.94191 12.0102 1.60298 12.1649 1.2988 12.3733V5.75949C1.2988 4.56205 1.3005 3.72594 1.38644 3.09593C1.47069 2.48344 1.6247 2.15967 1.85956 1.92853C2.02719 1.76498 2.24248 1.64148 2.57519 1.55386V11.8602Z" fill="black"/>
</svg>
