<svg width="15" height="19" viewBox="0 0 15 19" fill="none" xmlns="http://www.w3.org/2000/svg">
<path fill-rule="evenodd" clip-rule="evenodd" d="M2.44535 0.298206C1.86743 0.420708 1.369 0.639054 0.957574 1.04318C0.445314 1.54552 0.224072 2.17803 0.12196 2.92904C0.0224011 3.6525 0.022401 4.5729 0.022401 5.7136V12.481C0.0191516 13.0379 0.0245415 13.5948 0.0385688 14.1516C0.0132648 14.2598 0.0179657 14.3728 0.0521837 14.4787C0.0644075 14.7418 0.0876861 15.0043 0.12196 15.2655C0.224923 16.0165 0.445314 16.6491 0.956723 17.1514C1.46898 17.6537 2.11399 17.869 2.87983 17.9708C3.61758 18.0676 4.55616 18.0676 5.71938 18.0676H9.21671C10.3799 18.0676 11.3185 18.0676 12.0563 17.9708C12.8221 17.869 13.4671 17.6537 13.9794 17.1514C14.4916 16.6491 14.712 16.0165 14.815 15.2655C14.8924 14.6979 14.9091 14.0091 14.9127 13.1877H3.13924C2.74038 13.1877 2.13688 13.3459 1.62482 14.0206C1.37441 14.3506 0.903932 14.4151 0.57398 14.1646C0.244028 13.9142 0.179545 13.4438 0.429954 13.1138C1.03711 12.3138 1.77444 11.9199 2.44535 11.7669L2.44535 0.298206ZM14.9137 11.6877H3.94535L3.94535 0.145021C4.46658 0.126953 5.05651 0.126953 5.71938 0.126953H9.21671C10.3808 0.126953 11.3185 0.126953 12.0563 0.224584C12.8221 0.324718 13.4671 0.541675 13.9794 1.04318C14.4916 1.54552 14.7112 2.17803 14.815 2.92904C14.9137 3.6525 14.9137 4.57288 14.9137 5.71356V5.7136V11.6877Z" fill="#00C596"/>
</svg>
