<svg width="19" height="18" viewBox="0 0 19 18" fill="none" xmlns="http://www.w3.org/2000/svg">
<path d="M5.15516 5.18174H14.0441M5.15516 7.91814H14.0441M5.15516 10.6545H8.71072M10.2281 16.3946L11.7454 14.8376C12.0787 14.4955 12.5308 14.3032 13.0023 14.3031H15.8218C16.2933 14.3031 16.7455 14.1109 17.0789 13.7688C17.4123 13.4266 17.5996 12.9626 17.5996 12.4788V3.35747C17.5996 2.87365 17.4123 2.40964 17.0789 2.06752C16.7455 1.7254 16.2933 1.5332 15.8218 1.5332H3.37739C2.90589 1.5332 2.45371 1.7254 2.12031 2.06752C1.78691 2.40964 1.59961 2.87365 1.59961 3.35747V12.4788C1.59961 12.9626 1.78691 13.4266 2.12031 13.7688C2.45371 14.1109 2.90589 14.3031 3.37739 14.3031H6.19694C6.6684 14.3032 7.12051 14.4955 7.45383 14.8376L8.97117 16.3946C9.13786 16.5656 9.36391 16.6617 9.59961 16.6617C9.83531 16.6617 10.0614 16.5656 10.2281 16.3946Z" stroke="black" stroke-width="1.5" stroke-linecap="round" stroke-linejoin="round"/>
</svg>
