<svg width="18" height="18" viewBox="0 0 18 18" fill="none" xmlns="http://www.w3.org/2000/svg">
<path d="M17.168 16.0977V7.59766C17.168 7.44241 17.1318 7.2893 17.0624 7.15044C16.993 7.01159 16.8922 6.8908 16.768 6.79766L9.76797 1.54766C9.59487 1.41783 9.38434 1.34766 9.16797 1.34766C8.9516 1.34766 8.74106 1.41783 8.56797 1.54766L1.56797 6.79766C1.44377 6.8908 1.34297 7.01159 1.27354 7.15044C1.20411 7.2893 1.16797 7.44241 1.16797 7.59766V16.0977C1.16797 16.3629 1.27333 16.6172 1.46086 16.8048C1.6484 16.9923 1.90275 17.0977 2.16797 17.0977H6.16797C6.43319 17.0977 6.68754 16.9923 6.87508 16.8048C7.06261 16.6172 7.16797 16.3629 7.16797 16.0977V13.0977C7.16797 12.8324 7.27333 12.5781 7.46086 12.3905C7.6484 12.203 7.90275 12.0977 8.16797 12.0977H10.168C10.4332 12.0977 10.6875 12.203 10.8751 12.3905C11.0626 12.5781 11.168 12.8324 11.168 13.0977V16.0977C11.168 16.3629 11.2733 16.6172 11.4609 16.8048C11.6484 16.9923 11.9028 17.0977 12.168 17.0977H16.168C16.4332 17.0977 16.6875 16.9923 16.8751 16.8048C17.0626 16.6172 17.168 16.3629 17.168 16.0977Z" fill="#00C596" stroke="#00C596" stroke-width="1.5" stroke-linecap="round" stroke-linejoin="round"/>
</svg>
