<svg width="19" height="18" viewBox="0 0 19 18" fill="none" xmlns="http://www.w3.org/2000/svg">
<path fill-rule="evenodd" clip-rule="evenodd" d="M14.7329 3.89162C15.0258 4.18452 15.0258 4.65939 14.7329 4.95229L12.9649 6.72021L12.081 7.60417C11.7881 7.89706 11.3132 7.89706 11.0203 7.60417C10.7274 7.31127 10.7274 6.8364 11.0203 6.54351L11.9043 5.65954L13.6722 3.89162C13.9651 3.59873 14.44 3.59873 14.7329 3.89162ZM10.3701 1.77691C11.3859 0.761104 12.7637 0.19043 14.2002 0.19043H16.7001C17.6666 0.19043 18.4501 0.97393 18.4501 1.94043V4.44037C18.4501 5.87694 17.8795 7.25463 16.8637 8.27043C15.8479 9.28624 14.4702 9.85691 13.0336 9.85691H10.2837V16.6984C10.2837 17.1126 9.94788 17.4484 9.53367 17.4484C9.11946 17.4484 8.78367 17.1126 8.78367 16.6984V13.3569H6.03375C4.59719 13.3569 3.21946 12.7862 2.20366 11.7704C1.18786 10.7546 0.617188 9.37682 0.617188 7.94026V5.44037C0.617188 4.47388 1.40069 3.69037 2.36719 3.69037H4.86711C6.30367 3.69037 7.68139 4.26105 8.6972 5.27685C8.72815 5.30781 8.75869 5.3391 8.78882 5.37072C8.84773 4.02008 9.41016 2.73688 10.3701 1.77691Z" fill="#00C596"/>
</svg>
