<svg width="19" height="18" viewBox="0 0 19 18" fill="none" xmlns="http://www.w3.org/2000/svg">
<path d="M17.6836 16.0977V7.59766C17.6836 7.44241 17.6474 7.2893 17.578 7.15044C17.5086 7.01159 17.4078 6.8908 17.2836 6.79766L10.2836 1.54766C10.1105 1.41783 9.89996 1.34766 9.68359 1.34766C9.46722 1.34766 9.25669 1.41783 9.08359 1.54766L2.08359 6.79766C1.9594 6.8908 1.85859 7.01159 1.78917 7.15044C1.71974 7.2893 1.68359 7.44241 1.68359 7.59766V16.0977C1.68359 16.3629 1.78895 16.6172 1.97649 16.8048C2.16402 16.9923 2.41838 17.0977 2.68359 17.0977H6.68359C6.94881 17.0977 7.20316 16.9923 7.3907 16.8048C7.57824 16.6172 7.68359 16.3629 7.68359 16.0977V13.0977C7.68359 12.8324 7.78895 12.5781 7.97649 12.3905C8.16402 12.203 8.41838 12.0977 8.68359 12.0977H10.6836C10.9488 12.0977 11.2032 12.203 11.3907 12.3905C11.5782 12.5781 11.6836 12.8324 11.6836 13.0977V16.0977C11.6836 16.3629 11.789 16.6172 11.9765 16.8048C12.164 16.9923 12.4184 17.0977 12.6836 17.0977H16.6836C16.9488 17.0977 17.2032 16.9923 17.3907 16.8048C17.5782 16.6172 17.6836 16.3629 17.6836 16.0977Z" stroke="black" stroke-width="1.5" stroke-linecap="round" stroke-linejoin="round"/>
</svg>
