<svg width="19" height="17" viewBox="0 0 19 17" fill="none" xmlns="http://www.w3.org/2000/svg">
<path d="M9.12349 8C6.18454 9.64066 6.11356 12.6316 9.12349 14.3046C12.154 12.5788 12.1017 9.66092 9.12349 8Z" stroke="black"/>
<path d="M0.849609 7.13379C0.849609 5.61501 2.08083 4.38379 3.59961 4.38379H4.59961H9.09961H13.5996H14.5996C16.1184 4.38379 17.3496 5.61501 17.3496 7.13379V13.3543C17.3496 14.8731 16.1184 16.1043 14.5996 16.1043H3.59961C2.08083 16.1043 0.849609 14.8731 0.849609 13.3543V7.13379Z" stroke="black" stroke-width="1.5"/>
<path d="M6.09961 4.16213V4.16213C6.09961 2.60396 7.36275 1.34082 8.92092 1.34082H9.2783C10.8365 1.34082 12.0996 2.60396 12.0996 4.16213V4.16213" stroke="black" stroke-width="1.5"/>
<path d="M9.12695 14.0552L9.12695 10.9277" stroke="black" stroke-linecap="round"/>
</svg>
