<svg width="19" height="17" viewBox="0 0 19 17" fill="none" xmlns="http://www.w3.org/2000/svg">
<path fill-rule="evenodd" clip-rule="evenodd" d="M6.91755 3.63397C7.15106 2.74585 7.95949 2.09082 8.92092 2.09082H9.2783C10.2397 2.09082 11.0482 2.74585 11.2817 3.63397H6.91755ZM5.38839 3.63397C5.64365 1.91204 7.12799 0.59082 8.92092 0.59082H9.2783C11.0712 0.59082 12.5556 1.91204 12.8108 3.63397H14.5996C16.5326 3.63397 18.0996 5.20098 18.0996 7.13397V13.3545C18.0996 15.2875 16.5326 16.8545 14.5996 16.8545H3.59961C1.66661 16.8545 0.0996094 15.2875 0.0996094 13.3545V7.13397C0.0996094 5.20098 1.66661 3.63397 3.59961 3.63397H5.38839ZM9.33193 7.56295L9.08828 7.42706L8.84468 7.56305C7.2697 8.44227 6.36823 9.74207 6.35759 11.136C6.34691 12.5336 7.23276 13.8449 8.84548 14.7413L9.09137 14.878L9.33583 14.7388C10.95 13.8195 11.8496 12.5165 11.8417 11.1248C11.8338 9.73423 10.9209 8.44911 9.33193 7.56295ZM7.35756 11.1436C7.36422 10.2709 7.89611 9.3224 9.08883 8.57964C10.3049 9.33248 10.8368 10.2708 10.8417 11.1304C10.8458 11.862 10.4689 12.6607 9.592 13.364V10.9278C9.592 10.6516 9.36814 10.4278 9.092 10.4278C8.81585 10.4278 8.592 10.6516 8.592 10.9278V13.3772C7.7252 12.6881 7.35189 11.8856 7.35756 11.1436Z" fill="#00C596"/>
</svg>
