<svg width="19" height="18" viewBox="0 0 19 18" fill="none" xmlns="http://www.w3.org/2000/svg">
<path d="M9.53367 16.5734V12.486V8.39859M9.53367 8.98191V12.4819M9.53367 8.98191C9.53367 7.74426 9.04202 6.55733 8.16687 5.68218C7.29172 4.80703 6.10476 4.31537 4.86711 4.31537H2.36719C1.8149 4.31537 1.36719 4.76309 1.36719 5.31537V7.81526C1.36719 9.05291 1.85884 10.2399 2.73399 11.115C3.60914 11.9902 4.7961 12.4819 6.03375 12.4819H9.53367M9.53367 8.98191H13.0336C14.2712 8.98191 15.4582 8.49025 16.3333 7.6151C17.2085 6.73995 17.7001 5.55302 17.7001 4.31537V1.81543C17.7001 1.26314 17.2524 0.81543 16.7001 0.81543H14.2002C12.9626 0.81543 11.7756 1.30709 10.9005 2.18224C10.0253 3.05739 9.53367 4.24432 9.53367 5.48197V8.98191ZM9.53367 8.98191L14.2002 4.31537M9.53367 12.4819L4.86711 7.81526" stroke="black" stroke-width="1.5" stroke-linecap="round"/>
<path d="M9.53367 16.5734V12.486V8.39859M9.53367 8.98191V12.4819M9.53367 8.98191C9.53367 7.74426 9.04202 6.55733 8.16687 5.68218C7.29172 4.80703 6.10476 4.31537 4.86711 4.31537H2.36719C1.8149 4.31537 1.36719 4.76309 1.36719 5.31537V7.81526C1.36719 9.05291 1.85884 10.2399 2.73399 11.115C3.60914 11.9902 4.7961 12.4819 6.03375 12.4819H9.53367M9.53367 8.98191H13.0336C14.2712 8.98191 15.4582 8.49025 16.3333 7.6151C17.2085 6.73995 17.7001 5.55302 17.7001 4.31537V1.81543C17.7001 1.26314 17.2524 0.81543 16.7001 0.81543H14.2002C12.9626 0.81543 11.7756 1.30709 10.9005 2.18224C10.0253 3.05739 9.53367 4.24432 9.53367 5.48197V8.98191ZM9.53367 8.98191L14.2002 4.31537M9.53367 12.4819L4.86711 7.81526" stroke="black" stroke-width="1.5" stroke-linecap="round"/>
</svg>
