<svg width="17" height="16" viewBox="0 0 17 16" fill="none" xmlns="http://www.w3.org/2000/svg">
<path fill-rule="evenodd" clip-rule="evenodd" d="M8.73977 15.3018L10.2571 13.7448C10.5904 13.4027 11.0425 13.2104 11.514 13.2103H14.3336C14.805 13.2103 15.2572 13.0181 15.5906 12.676C15.924 12.3339 16.1113 11.8699 16.1113 11.386V2.2647C16.1113 1.78087 15.924 1.31686 15.5906 0.974745C15.2572 0.632629 14.805 0.44043 14.3336 0.44043H1.88911C1.41761 0.44043 0.965425 0.632629 0.632027 0.974745C0.298629 1.31686 0.111328 1.78087 0.111328 2.2647V11.386C0.111328 11.8699 0.298629 12.3339 0.632027 12.676C0.965425 13.0181 1.41761 13.2103 1.88911 13.2103H4.70866C5.18012 13.2104 5.63223 13.4027 5.96555 13.7448L7.48288 15.3018C7.64958 15.4728 7.87563 15.5689 8.11133 15.5689C8.34703 15.5689 8.57308 15.4728 8.73977 15.3018ZM3.66689 3.42108C3.25267 3.42108 2.91689 3.75687 2.91689 4.17108C2.91689 4.5853 3.25267 4.92108 3.66689 4.92108H12.5558C12.97 4.92108 13.3058 4.5853 13.3058 4.17108C13.3058 3.75687 12.97 3.42108 12.5558 3.42108H3.66689ZM3.66689 6.15748C3.25267 6.15748 2.91689 6.49327 2.91689 6.90748C2.91689 7.3217 3.25267 7.65748 3.66689 7.65748H12.5558C12.97 7.65748 13.3058 7.3217 13.3058 6.90748C13.3058 6.49327 12.97 6.15748 12.5558 6.15748H3.66689ZM3.66689 8.89389C3.25267 8.89389 2.91689 9.22967 2.91689 9.64389C2.91689 10.0581 3.25267 10.3939 3.66689 10.3939H7.22244C7.63665 10.3939 7.97244 10.0581 7.97244 9.64389C7.97244 9.22967 7.63665 8.89389 7.22244 8.89389H3.66689Z" fill="#00C596"/>
</svg>
