<svg width="21" height="21" viewBox="0 0 21 21" fill="none" xmlns="http://www.w3.org/2000/svg">
<rect x="0.460938" y="0.5" width="20" height="20" rx="4" fill="#E0E0E0"/>
<path d="M9.80469 14.5H11.3047V9.5H9.80469V14.5ZM10.5547 8C10.7627 8 10.9397 7.927 11.0857 7.781C11.2317 7.635 11.3047 7.458 11.3047 7.25C11.3047 7.042 11.2317 6.865 11.0857 6.719C10.9397 6.573 10.7627 6.5 10.5547 6.5C10.3467 6.5 10.1697 6.573 10.0237 6.719C9.87769 6.865 9.80469 7.042 9.80469 7.25C9.80469 7.458 9.87769 7.635 10.0237 7.781C10.1697 7.927 10.3467 8 10.5547 8Z" fill="#737373"/>
</svg>
