<svg width="20" height="20" viewBox="0 0 20 20" fill="none" xmlns="http://www.w3.org/2000/svg">
<g id="Icon / location">
<path id="Vector" d="M14.9504 13.9553C16.2633 12.6417 17.0009 10.8605 17.0009 9.00333C17.0009 7.14612 16.2633 5.36492 14.9504 4.05133C14.3005 3.40101 13.5289 2.88512 12.6795 2.53314C11.8302 2.18116 10.9198 2 10.0004 2C9.08105 2 8.17067 2.18116 7.32133 2.53314C6.47198 2.88512 5.70032 3.40101 5.05043 4.05133C3.73753 5.36492 3 7.14612 3 9.00333C3 10.8605 3.73753 12.6417 5.05043 13.9553L6.57143 15.4543L8.61443 17.4393L8.74743 17.5573C9.52243 18.1853 10.6574 18.1453 11.3874 17.4393L13.8224 15.0693L14.9504 13.9553ZM10.0004 12.0003C9.20478 12.0003 8.44172 11.6843 7.87911 11.1217C7.3165 10.559 7.00043 9.79598 7.00043 9.00033C7.00043 8.20468 7.3165 7.44162 7.87911 6.87901C8.44172 6.3164 9.20478 6.00033 10.0004 6.00033C10.7961 6.00033 11.5591 6.3164 12.1218 6.87901C12.6844 7.44162 13.0004 8.20468 13.0004 9.00033C13.0004 9.79598 12.6844 10.559 12.1218 11.1217C11.5591 11.6843 10.7961 12.0003 10.0004 12.0003Z" fill="#787878"/>
</g>
</svg>
