<svg width="12" height="14" viewBox="0 0 12 14" fill="none" xmlns="http://www.w3.org/2000/svg">
<path id="Vector" d="M4.79306 6.03922L5.86706 5.05522C6.16073 4.78564 6.36714 4.43445 6.45979 4.04673C6.55244 3.65901 6.52712 3.25244 6.38706 2.87922L5.92906 1.65622C5.75795 1.19964 5.41921 0.825468 4.98184 0.609941C4.54446 0.394414 4.04138 0.353745 3.57506 0.496219C1.85906 1.02122 0.540064 2.61622 0.946064 4.51022C1.21306 5.75622 1.72406 7.32022 2.69206 8.98422C3.66206 10.6522 4.77006 11.8842 5.72006 12.7502C7.15406 14.0552 9.20406 13.7292 10.5231 12.4992C10.8766 12.1696 11.0912 11.7175 11.1229 11.2351C11.1547 10.7527 11.0013 10.2764 10.6941 9.90322L9.85406 8.88322C9.60072 8.57477 9.26087 8.34918 8.87825 8.23548C8.49563 8.12178 8.08774 8.12517 7.70706 8.24522L6.31906 8.68222C5.96061 8.3123 5.6465 7.90186 5.38306 7.45922C5.1288 7.01157 4.93064 6.53431 4.79306 6.03822V6.03922Z" fill="#00B187"/>
</svg>
