<svg width="32" height="32" viewBox="0 0 32 32" fill="none" xmlns="http://www.w3.org/2000/svg">
<path d="M14.3913 14.719L15.8233 13.407C16.2149 13.0475 16.4901 12.5793 16.6136 12.0623C16.7372 11.5453 16.7034 11.0033 16.5167 10.5056L15.906 8.87496C15.6778 8.26618 15.2262 7.76729 14.643 7.47992C14.0599 7.19255 13.3891 7.13833 12.7673 7.32829C10.4793 8.02829 8.72066 10.155 9.26199 12.6803C9.61799 14.3416 10.2993 16.427 11.59 18.6456C12.8833 20.8696 14.3607 22.5123 15.6273 23.667C17.5393 25.407 20.2727 24.9723 22.0313 23.3323C22.5027 22.8927 22.7888 22.29 22.8312 21.6468C22.8735 21.0036 22.669 20.3685 22.2593 19.871L21.1393 18.511C20.8015 18.0997 20.3484 17.7989 19.8382 17.6473C19.3281 17.4957 18.7842 17.5002 18.2767 17.6603L16.426 18.243C15.9481 17.7497 15.5292 17.2025 15.178 16.6123C14.839 16.0154 14.5748 15.3791 14.3913 14.7176V14.719Z" fill="#00B187"/>
</svg>
