<svg width="25" height="25" viewBox="0 0 25 25" fill="none" xmlns="http://www.w3.org/2000/svg">
<g id="Icon/Search">
<path id="Vector" d="M20.9738 19.2121L17.0719 15.3102C18.0113 14.0596 18.5184 12.5373 18.5167 10.9732C18.5167 6.97797 15.2663 3.72754 11.2711 3.72754C7.27582 3.72754 4.02539 6.97797 4.02539 10.9732C4.02539 14.9684 7.27582 18.2189 11.2711 18.2189C12.8352 18.2206 14.3574 17.7135 15.608 16.7741L19.5099 20.676C19.7075 20.8525 19.9651 20.9468 20.2299 20.9394C20.4947 20.932 20.7467 20.8235 20.934 20.6361C21.1213 20.4488 21.2298 20.1969 21.2372 19.932C21.2446 19.6672 21.1504 19.4096 20.9738 19.2121ZM6.09558 10.9732C6.09558 9.9496 6.39912 8.94897 6.96781 8.09787C7.5365 7.24676 8.3448 6.58341 9.29049 6.19169C10.2362 5.79997 11.2768 5.69748 12.2807 5.89718C13.2847 6.09687 14.2069 6.58979 14.9307 7.31359C15.6545 8.0374 16.1474 8.95958 16.3471 9.96352C16.5468 10.9675 16.4443 12.0081 16.0526 12.9538C15.6609 13.8995 14.9975 14.7078 14.1464 15.2765C13.2953 15.8452 12.2947 16.1487 11.2711 16.1487C9.89894 16.147 8.5835 15.6012 7.61326 14.631C6.64303 13.6608 6.09723 12.3453 6.09558 10.9732Z" fill="#787878"/>
</g>
</svg>
