<svg width="21" height="21" viewBox="0 0 21 21" fill="none" xmlns="http://www.w3.org/2000/svg">
<g clip-path="url(#clip0_635_8864)">
<path d="M16.3989 17.5762L11.4189 12.5972C11.0023 12.9025 10.5439 13.1422 10.0439 13.3162C9.54394 13.4895 9.01627 13.5762 8.46094 13.5762C7.07227 13.5762 5.8916 13.0902 4.91894 12.1182C3.94694 11.1455 3.46094 9.96484 3.46094 8.57617C3.46094 7.18751 3.94694 6.00684 4.91894 5.03417C5.8916 4.06217 7.07227 3.57617 8.46094 3.57617C9.8496 3.57617 11.0303 4.06217 12.0029 5.03417C12.9749 6.00684 13.4609 7.18751 13.4609 8.57617C13.4609 9.13151 13.3743 9.65917 13.2009 10.1592C13.0269 10.6592 12.7873 11.1175 12.4819 11.5342L17.4609 16.5142L16.3989 17.5762ZM8.46094 12.0762C9.43294 12.0762 10.2593 11.7358 10.9399 11.0552C11.6206 10.3745 11.9609 9.54817 11.9609 8.57617C11.9609 7.60417 11.6206 6.77784 10.9399 6.09717C10.2593 5.41651 9.43294 5.07617 8.46094 5.07617C7.48894 5.07617 6.6626 5.41651 5.98194 6.09717C5.30127 6.77784 4.96094 7.60417 4.96094 8.57617C4.96094 9.54817 5.30127 10.3745 5.98194 11.0552C6.6626 11.7358 7.48894 12.0762 8.46094 12.0762Z" fill="#737373"/>
</g>
<defs>
<clipPath id="clip0_635_8864">
<rect width="20" height="20" fill="white" transform="translate(0.460938 0.576172)"/>
</clipPath>
</defs>
</svg>
