<svg width="22" height="18" viewBox="0 0 22 18" fill="none" xmlns="http://www.w3.org/2000/svg">
<path d="M6.46094 13.5H7.96094C8.37344 13.5 8.71094 13.1625 8.71094 12.75V6C8.71094 5.5875 8.37344 5.25 7.96094 5.25H6.46094V13.5ZM21.3334 8.16C21.4159 7.9725 21.4609 7.77 21.4609 7.56V6.75C21.4609 5.925 20.7859 5.25 19.9609 5.25H15.8359L16.5259 1.7625C16.5634 1.5975 16.5409 1.4175 16.4659 1.2675C16.2934 0.93 16.0759 0.6225 15.8059 0.3525L15.4609 0L10.6534 4.8075C10.3684 5.0925 10.2109 5.475 10.2109 5.8725V11.7525C10.2109 12.7125 10.9984 13.5 11.9659 13.5H18.0484C18.5734 13.5 19.0684 13.2225 19.3384 12.7725L21.3334 8.16Z" fill="#BDBDBD"/>
</svg>
