<svg width="21" height="22" viewBox="0 0 21 22" fill="none" xmlns="http://www.w3.org/2000/svg">
<path id="Vector" d="M19.8084 1.13758L20.3714 1.70053C21.1471 2.47722 21.0298 3.85407 20.1071 4.77579L8.49784 16.385L4.73654 17.7609C4.26424 17.9346 3.80433 17.7094 3.71082 17.26C3.67922 17.097 3.6941 16.9283 3.75376 16.7734L5.15637 12.9796L16.7332 1.40188C17.6558 0.480164 19.0327 0.360895 19.8084 1.13758ZM7.99118 2.29211C8.11648 2.29211 8.24055 2.31679 8.35632 2.36474C8.47208 2.41269 8.57727 2.48298 8.66587 2.57158C8.75447 2.66018 8.82476 2.76537 8.87271 2.88113C8.92066 2.99689 8.94534 3.12097 8.94534 3.24627C8.94534 3.37157 8.92066 3.49565 8.87271 3.61141C8.82476 3.72717 8.75447 3.83236 8.66587 3.92096C8.57727 4.00956 8.47208 4.07985 8.35632 4.1278C8.24055 4.17575 8.11648 4.20043 7.99118 4.20043H4.17454C3.66843 4.20043 3.18304 4.40148 2.82516 4.75936C2.46728 5.11724 2.26623 5.60263 2.26623 6.10875V17.5586C2.26623 18.0648 2.46728 18.5502 2.82516 18.908C3.18304 19.2659 3.66843 19.467 4.17454 19.467H15.6244C16.1306 19.467 16.616 19.2659 16.9738 18.908C17.3317 18.5502 17.5328 18.0648 17.5328 17.5586V13.742C17.5328 13.489 17.6333 13.2463 17.8122 13.0673C17.9912 12.8884 18.2339 12.7879 18.4869 12.7879C18.74 12.7879 18.9827 12.8884 19.1616 13.0673C19.3406 13.2463 19.4411 13.489 19.4411 13.742V17.5586C19.4411 18.5709 19.039 19.5417 18.3232 20.2574C17.6075 20.9732 16.6367 21.3753 15.6244 21.3753H4.17454C3.16231 21.3753 2.19153 20.9732 1.47578 20.2574C0.760019 19.5417 0.35791 18.5709 0.35791 17.5586V6.10875C0.35791 5.09651 0.760019 4.12574 1.47578 3.40998C2.19153 2.69422 3.16231 2.29211 4.17454 2.29211H7.99118Z" fill="#E0E0E0"/>
</svg>
