<svg width="110" height="110" viewBox="0 0 110 110" fill="none" xmlns="http://www.w3.org/2000/svg">
<g id="&#236;&#130;&#172;&#234;&#179;&#188;">
<path id="Vector 1182" d="M37.1329 84.0437C15.7671 48.9005 23.9492 35.2092 37.1329 31.558C41.1334 30.0181 51.6803 32.2853 56.6811 32.9269C67.1371 29.7324 83.7559 28.3628 85.7764 46.6186C87.5948 63.0489 78.048 80.6202 67.1371 86.7818C62.0116 89.6763 56.0944 86.4618 52.5896 86.7818C49.4626 87.0672 40.3152 89.278 37.1329 84.0437Z" fill="#DC2800" stroke="#B72100" stroke-linecap="round"/>
<path id="Vector 1184" d="M52.9575 22.6782C51.5291 23.4072 51.1857 34.4335 55.6152 39.4069C56.0998 39.951 56.3415 40.1665 56.9441 39.859C57.387 39.6329 59.8185 39.7051 58.7158 38.9548C51.6272 34.1313 54.434 25.5417 56.0581 22.6782C56.2058 21.774 54.7294 21.7739 52.9575 22.6782Z" fill="#A14503" stroke="#974206" stroke-linecap="round"/>
<path id="Vector 1183" d="M50 37C51.4483 39.2639 56.2759 42.4333 64 37" stroke="#B72100" stroke-linecap="round"/>
</g>
</svg>
