<svg width="110" height="110" viewBox="0 0 110 110" fill="none" xmlns="http://www.w3.org/2000/svg">
<g id="&#236;&#189;&#169;">
<path id="Ellipse 39" d="M35.4394 71.2381L35.459 71.202L35.4724 71.1632C36.971 66.8244 39.7388 61.4663 42.1976 56.7065C42.2801 56.5468 42.3623 56.3877 42.444 56.2294C43.2948 54.5819 44.1891 52.5744 45.0992 50.5313C45.4138 49.825 45.7303 49.1144 46.0476 48.413C47.2922 45.6617 48.5474 43.0531 49.7734 41.2848C50.6719 39.989 51.4263 39.189 52.2426 38.3234C52.4153 38.1402 52.5908 37.9541 52.771 37.7597C53.8025 36.6472 54.9435 35.3087 56.5 32.804C59.6355 29.4064 62.6691 26.8981 65.3612 25.4783C68.0764 24.0462 70.3373 23.773 72.0132 24.6384C73.4797 25.3957 74.4948 27.0204 74.9977 29.4641C75.4994 31.9023 75.4714 35.0754 74.9215 38.7803C73.8224 46.1848 70.6561 55.5993 65.6696 65.2556C60.6831 74.9119 54.84 82.9441 49.4389 88.1271C46.7365 90.7204 44.1654 92.5803 41.8869 93.5828C39.6033 94.5876 37.6908 94.7005 36.2244 93.9432C33.0637 92.311 31.3892 88.2968 32.4931 81.5811C32.5247 81.3888 32.5565 81.1934 32.5886 80.995C33.0587 78.0984 33.6298 74.579 35.4394 71.2381Z" fill="#59CA00" stroke="#469F00"/>
<path id="Ellipse 45" d="M44.9892 90.2618C43.356 93.4243 39.4887 94.6682 36.3542 93.0496C33.2197 91.4309 31.995 87.5575 33.6281 84.3949C35.2612 81.2324 39.1286 79.9884 42.2631 81.6071C45.3976 83.2258 46.6223 87.0992 44.9892 90.2618Z" fill="#90FD3B" stroke="#5CBD10"/>
<path id="Ellipse 48" d="M71.9892 89.2618C70.356 92.4243 66.4887 93.6682 63.3542 92.0496C60.2197 90.4309 58.995 86.5575 60.6281 83.3949C62.2612 80.2324 66.1286 78.9884 69.2631 80.6071C72.3976 82.2258 73.6223 86.0992 71.9892 89.2618Z" fill="#90FD3B" stroke="#5CBD10"/>
<path id="Ellipse 40" d="M48.9892 81.2618C47.356 84.4243 43.4887 85.6682 40.3542 84.0496C37.2197 82.4309 35.995 78.5575 37.6281 75.3949C39.2612 72.2324 43.1286 70.9884 46.2631 72.6071C49.3976 74.2258 50.6223 78.0992 48.9892 81.2618Z" fill="#90FD3B" stroke="#5CBD10"/>
<path id="Ellipse 41" d="M53.9892 72.2618C52.356 75.4243 48.4887 76.6682 45.3542 75.0496C42.2197 73.4309 40.995 69.5575 42.6281 66.3949C44.2612 63.2324 48.1286 61.9884 51.2631 63.6071C54.3976 65.2258 55.6223 69.0992 53.9892 72.2618Z" fill="#90FD3B" stroke="#5CBD10"/>
<path id="Ellipse 42" d="M58.661 63.6255C57.2323 66.3922 53.5357 67.4198 50.3545 65.7771C47.1734 64.1344 45.8712 60.5254 47.2999 57.7587C48.7286 54.992 52.4252 53.9644 55.6063 55.6071C58.7874 57.2498 60.0897 60.8588 58.661 63.6255Z" fill="#90FD3B" stroke="#5CBD10"/>
<path id="Ellipse 49" d="M71.0539 92.9812C69.2514 90.4422 70.0347 86.6862 72.9541 84.6137C75.8735 82.5412 79.6776 83.0403 81.4802 85.5794C83.2827 88.1184 82.4993 91.8744 79.58 93.9469C76.6606 96.0194 72.8564 95.5203 71.0539 92.9812Z" fill="#90FD3B" stroke="#5CBD10"/>
<path id="Ellipse 43" d="M63.661 54.6255C62.2323 57.3922 58.5357 58.4198 55.3545 56.7771C52.1734 55.1344 50.8712 51.5254 52.2999 48.7587C53.7286 45.992 57.4252 44.9644 60.6063 46.6071C63.7874 48.2498 65.0897 51.8588 63.661 54.6255Z" fill="#90FD3B" stroke="#5CBD10"/>
<path id="Ellipse 44" d="M68.661 45.6255C67.2323 48.3922 63.5357 49.4198 60.3545 47.7771C57.1734 46.1344 55.8712 42.5254 57.2999 39.7587C58.7286 36.992 62.4252 35.9644 65.6063 37.6071C68.7874 39.2498 70.0897 42.8588 68.661 45.6255Z" fill="#90FD3B" stroke="#5CBD10"/>
<path id="Ellipse 46" d="M73.661 36.6255C72.2323 39.3922 68.5357 40.4198 65.3545 38.7771C62.1734 37.1344 60.8712 33.5254 62.2999 30.7587C63.7286 27.992 67.4252 26.9644 70.6063 28.6071C73.7874 30.2498 75.0897 33.8588 73.661 36.6255Z" fill="#90FD3B" stroke="#5CBD10"/>
<path id="Ellipse 47" d="M40.7034 93.7992C42.2626 92.8463 44.124 91.2202 45.2234 88.2605C45.289 88.0839 45.3555 87.9041 45.4232 87.7214C46.3973 85.0918 47.5993 81.8469 49.3926 78.4364L49.3998 78.4227L49.4061 78.4086C51.2803 74.238 54.0566 68.8623 56.5106 64.1109C56.5949 63.9476 56.6789 63.785 56.7625 63.6232C57.6178 61.9667 58.5786 60.003 59.5608 57.9955C61.2146 54.6152 62.9289 51.1112 64.3027 48.7422C65.1001 47.3669 65.6987 46.461 66.3338 45.4997C66.4672 45.2976 66.6023 45.0932 66.7412 44.8813C67.5413 43.6614 68.4535 42.2193 69.8774 39.6512C72.3948 35.7969 73.3194 32.4571 73.7923 30.1791C73.8886 29.7153 73.9664 29.2944 74.0342 28.9276C74.0492 28.846 74.0638 28.7671 74.078 28.691C74.1574 28.2649 74.2221 27.9391 74.2908 27.6979C74.2933 27.6892 74.2958 27.6807 74.2982 27.6724C74.8655 28.8113 75.2452 30.4004 75.3639 32.4262C75.4974 34.7042 75.2989 37.4998 74.6942 40.7575C73.4847 47.2724 70.6576 55.597 65.67 65.2556C60.6889 74.9014 54.9425 82.2352 49.8319 87.1509C47.276 89.6093 44.886 91.4563 42.8374 92.6853C42.0672 93.1474 41.3534 93.5171 40.7034 93.7992Z" fill="#59CA00" stroke="#469F00"/>
<path id="Vector 1243" d="M75 86.4999C76 85.8332 78.3 84.8999 79.5 86.4999" stroke="#5CBD10" stroke-linecap="round"/>
<path id="Vector 1244" d="M63.5002 84C63.5002 84 63.9184 82.2971 65.8881 82.6442" stroke="#5CBD10" stroke-linecap="round"/>
<path id="Vector 1118" d="M62.208 11.5073C61.803 12.497 64.9135 20.6666 69.4604 23.6282C70.4969 24.3033 72.9692 25.6717 74 26C69.3378 21.7535 63.697 11.8355 62.208 11.5073Z" fill="#469F00" stroke="#337400" stroke-linecap="round"/>
<path id="Vector 1245" d="M74.5718 9.05018C73.6286 9.55402 70.8122 17.8296 72.4244 23.0109C72.7919 24.192 73.4158 25.0899 74.0002 26.0002C73.1189 19.7558 75.5092 10.2528 74.5718 9.05018Z" fill="#469F00" stroke="#337400" stroke-linecap="round"/>
<path id="Vector 1246" d="M89.9386 26.2179C89.3579 27.1159 80.8764 29.2328 75.8475 27.1944C74.7011 26.7298 73.8584 26.0332 72.9998 25.3749C79.1491 26.7736 88.8182 25.1836 89.9386 26.2179Z" fill="#469F00" stroke="#337400" stroke-linecap="round"/>
<path id="Vector 1119" d="M89.9792 8.44142C90.7145 9.77133 80.8162 22.5507 74.0002 25.5C72.4465 26.1723 74.5804 24.5123 73 24.7449C74.8131 23.5403 76.6925 21.8453 78.5191 20.0001C83.6087 14.8589 88.2882 8.5522 89.9792 8.44142Z" fill="#469F00" stroke="#337400" stroke-linecap="round"/>
</g>
</svg>
