<svg width="110" height="110" viewBox="0 0 110 110" fill="none" xmlns="http://www.w3.org/2000/svg">
<g id="&#235;&#176;&#176;&#236;&#182;&#148;">
<path id="Vector 1175" d="M21.0913 43.8331C21.0913 42.2132 21.0159 41.1205 22.775 41.1205C22.775 38.7082 26.4367 36.2583 28.1535 34.713C29.0943 33.8662 28.559 32.5762 29.7203 31.673C30.5648 31.0161 31.6057 31.281 32.1289 30.1764C33.991 26.2452 31.9209 26 36 26C40.4391 28.4999 39.3164 23.7954 42 24.5C46.1687 25.5946 50.2027 28.3631 52.6374 29.124C56.0236 30.1822 59.9577 28.9136 63.3711 28.9136C66.9223 28.9136 71.1373 28.2652 74.5724 29.124C84.7278 31.663 92.228 43.957 92.228 54.0756C92.228 63.4502 84.7118 75.2155 74.3619 75.2155C68.4065 75.2155 62.921 73.9528 56.9636 73.9528C50.8889 73.9528 45.7759 71.6777 39.8693 70.9829C37.8205 70.7419 36.4614 69.3111 34.5609 68.8081C32.9295 68.3763 30.0494 68.1784 28.8784 67.0075C27.3033 65.4324 29.2332 64.2715 26.4698 64.2715C22.9758 64.2715 24.8911 62.4285 22.9855 60.904C22.4452 60.4718 21.5122 54.8452 21.5122 53.9354C21.5122 52.4761 24.1239 49.6719 22.9387 48.4867C21.0753 46.6233 21.0913 46.7073 21.0913 43.8331Z" fill="#89AF3E" stroke="#89AF3E" stroke-linecap="round"/>
<path id="Vector 1160" d="M23.6167 42.3831C25.3691 42.3831 28.3343 41.96 29.7201 43.0379C30.7944 43.8735 32.0768 47.1154 33.1109 47.4109C34.1154 47.6979 35.639 45.9328 36.4784 45.5635C38.1087 44.8461 40.0764 44.2336 41.8803 44.5111C42.9899 44.6819 43.3768 46.3692 44.476 46.569C46.4405 46.9262 49.1587 44.9087 51.4213 44.9087C55.6979 44.9087 55.4636 49.8132 59.6761 48.1826C61.2891 47.5582 64.2242 46.5685 65.382 48.3697C66.2929 49.7867 66.4656 50.8017 68.235 50.8017C72.7097 50.8017 76.8014 54.3965 75.4998 57" stroke="#71A30E" stroke-linecap="round"/>
<path id="Vector 1161" d="M28.6682 33.9647C28.6682 33.9453 28.6682 36.3964 28.6682 37.1918C28.6682 39.6679 28.4687 40.2786 31.0067 40.2786C33.0476 40.2786 32.6088 40.9885 33.2049 42.7107C33.5027 43.571 35.4259 43.2479 36.2449 44.067" stroke="#71A30E" stroke-linecap="round"/>
<path id="Vector 1163" d="M44.6631 64.6922C43.0268 64.6922 38.5163 65.5421 37.0864 64.2713C39.4998 68.0001 70.8998 77.9001 78.4998 75.5001C86.0998 73.1001 86.6664 69.5001 85.9998 68.0001C84.6664 65.7692 81.2998 60.846 78.4998 58.9999C75.6998 57.1538 70.8674 60.9567 65.9998 62C60.5711 63.1636 55.9718 64.6032 52.1463 64.6922C49.655 64.7501 47.155 64.6922 44.6631 64.6922Z" fill="white" stroke="white" stroke-linecap="round"/>
<path id="Vector 1177" d="M56.5 40C53.281 38.0392 52.5 37 49.5 35C53.5 33.5 76.9 38.6 84.5 41C87.5 41.9474 91 46 92.5 53C92.6832 60.3876 87.8375 67.7407 87.5 68.5001C86.1666 70.7309 80.3 56.6539 77.5 58.5C74.7 60.3461 79.3677 54.0433 74.5 53C69.0714 51.8364 73.8255 46.089 70 46C67.5087 45.9421 61.1268 42.8183 56.5 40Z" fill="white" stroke="white" stroke-linecap="round"/>
<path id="Vector 1164" d="M48.0307 64.6922C47.6206 61.4115 41.7168 59.4198 41.7168 55.8528" stroke="white" stroke-linecap="round"/>
<path id="Vector 1176" d="M37.5 64.5C33.6861 62.6606 30 65.067 30 61.5" stroke="white" stroke-linecap="round"/>
<path id="Vector 1165" d="M53.5028 64.6924C51.5534 62.7431 49.3271 59.742 48.4517 57.1157" stroke="white" stroke-linecap="round"/>
<path id="Vector 1166" d="M59.8167 63.0086C59.582 60.8959 56.1764 60.5064 55.6074 58.7993" stroke="white" stroke-linecap="round"/>
<path id="Vector 1167" d="M42 34C51.5 34 51.8956 36.6996 56.6924 38.5767C59.5758 39.7049 62.4522 41.5232 65.6254 41.5232" stroke="white" stroke-linecap="round"/>
<path id="Vector 1168" d="M56.4492 36.9112C56.4492 34.5377 71.0748 36.6474 73.2863 37.7531" stroke="white" stroke-linecap="round"/>
<path id="Vector 1170" d="M64.8677 32.281C65.1433 33.7816 65.27 35.2151 66.5514 36.0693" stroke="white" stroke-linecap="round"/>
<path id="Vector 1178" d="M56 31C56.2756 32.5006 56.4023 33.9341 57.6837 34.7883" stroke="white" stroke-linecap="round"/>
<path id="Vector 1171" d="M69.498 33.1228C70.1718 34.6388 70.432 36.2536 71.1818 37.753" stroke="white" stroke-linecap="round"/>
<path id="Vector 1172" d="M55 38.4208C52.5 36.9999 48.2293 38.4209 46.5 38.4209" stroke="white" stroke-linecap="round"/>
<path id="Vector 1173" d="M59.9998 42.0001C57.4998 42 53.9998 41.0001 53.4717 42.6303" stroke="white" stroke-linecap="round"/>
<path id="Vector 1159" d="M21.0913 43.8331C21.0913 42.2132 21.0159 41.1205 22.775 41.1205C22.775 38.7082 26.4367 36.2583 28.1535 34.713C29.0943 33.8662 28.559 32.5762 29.7203 31.673C30.5648 31.0161 31.6057 31.281 32.1289 30.1764C33.991 26.2452 31.9209 26 36 26C40.4391 28.4999 39.3164 23.7954 42 24.5C46.1687 25.5946 50.2027 28.3631 52.6374 29.124C56.0236 30.1822 59.9577 28.9136 63.3711 28.9136C66.9223 28.9136 71.1373 28.2652 74.5724 29.124C84.7278 31.663 92.228 43.957 92.228 54.0756C92.228 63.4502 84.7118 75.2155 74.3619 75.2155C68.4065 75.2155 62.921 73.9528 56.9636 73.9528C50.8889 73.9528 45.7759 71.6777 39.8693 70.9829C37.8205 70.7419 36.4614 69.3111 34.5609 68.8081C32.9295 68.3763 30.0494 68.1784 28.8784 67.0075C27.3033 65.4324 29.2332 64.2715 26.4698 64.2715C22.9758 64.2715 24.8911 62.4285 22.9855 60.904C22.4452 60.4718 21.5122 54.8452 21.5122 53.9354C21.5122 52.4761 24.1239 49.6719 22.9387 48.4867C21.0753 46.6233 21.0913 46.7073 21.0913 43.8331Z" stroke="#71A30E" stroke-linecap="round"/>
<path id="Vector 1162" d="M88.7563 54.5901C85.2756 54.5901 81.9558 60.8383 84.547 63.4295" stroke="#71A30E" stroke-linecap="round"/>
</g>
</svg>
