<svg width="110" height="110" viewBox="0 0 110 110" fill="none" xmlns="http://www.w3.org/2000/svg">
<g id="&#236;&#152;&#165;&#236;&#136;&#152;&#236;&#136;&#152;">
<path id="Vector 1242" d="M50.6844 96.3555C47.5541 97.1109 41.636 100 37 97.5C37.8042 96.8221 39.0176 95.1641 39.492 94.2343C39.7545 93.7199 40.0781 93.4473 40.515 93.0793L40.5573 93.0437C41.1036 92.5831 41.3005 91.2837 41.636 90.6296C43.8733 86.2677 47.2179 84.871 51.4183 82.9472C54.236 81.6567 55.8973 78.6071 58.189 76.6752C61.3187 74.0368 65.126 71.5004 67.7857 68.376C70.9284 64.6842 74.0007 61.9281 78.3549 59.8421C80.2021 58.9572 81.4759 57.1323 83.2023 56.0482C84.8187 55.0332 86.7038 54.9414 88.4168 54.2019C89.6132 53.6855 92.7402 51.3096 91.7439 52.1494C90.5373 53.1667 89.2551 54.5064 88.3276 55.7818C86.3703 58.4731 85.1333 61.3619 82.5542 63.6582C79.6462 66.2473 77.249 69.2591 74.2657 71.774L66.8505 78.0252C64.8002 79.7536 61.7269 81.7682 60.6052 84.2514C59.4434 86.8236 57.871 89.0989 56.7072 91.6752C55.4748 94.4037 53.6615 95.6371 50.6844 96.3555Z" fill="#BCF673" stroke="#ACED5B" stroke-linecap="round"/>
<path id="Ellipse 39" d="M66.6701 69.2557C61.6836 78.912 55.8405 86.9442 50.4394 92.1272C47.7369 94.7205 45.1658 96.5804 42.8873 97.5829C40.6038 98.5876 38.6913 98.7006 37.2248 97.9433C35.7584 97.186 34.7432 95.5613 34.2404 93.1176C33.7387 90.6794 33.7666 87.5063 34.3166 83.8014C35.4156 76.3969 38.582 66.9824 43.5685 57.3261C48.5549 47.6698 54.398 39.6376 59.7992 34.4546C62.5016 31.8613 65.0727 30.0014 67.3512 28.9989C69.6348 27.9941 71.5472 27.8812 73.0137 28.6385C74.4802 29.3958 75.4953 31.0205 75.9981 33.4641C76.4999 35.9024 76.4719 39.0755 75.922 42.7804C74.8229 50.1849 71.6565 59.5994 66.6701 69.2557Z" fill="#FED017" stroke="#FFAE11"/>
<path id="Vector 1230" d="M38.8867 84.6934C41.2533 83.4201 46.3195 82.7226 47.651 90.119" stroke="#FFAE11" stroke-linecap="round"/>
<path id="Vector 1231" d="M41.5 77.5C43.8666 76.2267 50.9972 76.8144 52.3287 84.2108" stroke="#FFAE11" stroke-linecap="round"/>
<path id="Vector 1232" d="M44 71C46.3666 69.7267 55.4131 71.3514 56.7446 78.7478" stroke="#FFAE11" stroke-linecap="round"/>
<path id="Vector 1233" d="M48 64C50.3666 62.7267 61.0366 63.6409 62.3681 71.0373" stroke="#FFAE11" stroke-linecap="round"/>
<path id="Vector 1234" d="M54.9639 55.4434C57.3305 54.1701 65.2395 55.7459 66.571 63.1423" stroke="#FFAE11" stroke-linecap="round"/>
<path id="Vector 1235" d="M59.4028 45.1533C61.7695 43.88 69.6785 45.4559 71.01 52.8523" stroke="#FFAE11" stroke-linecap="round"/>
<path id="Vector 1236" d="M62.8823 38.1914C65.249 36.9181 72.6964 36.9817 74.0279 44.3781" stroke="#FFAE11" stroke-linecap="round"/>
<path id="Vector 1238" d="M37.5 91C50.5 75.5 65 53.5 68.5 35" stroke="#FFAE11" stroke-linecap="round"/>
<path id="Vector 1239" d="M42 93C55 77.5 71.5 59 71.5 36" stroke="#FFAE11" stroke-linecap="round"/>
<path id="Vector 1241" d="M29.1596 85.1472C30.5997 88.0275 34.2174 95.2174 36.5 97.5C36.5 96.4482 37.5904 93.2994 37.9954 92.3373C38.2195 91.8051 38.2194 91.382 38.2191 90.8107L38.2191 90.7555C38.2191 90.0409 39.0857 89.0529 39.3695 88.3748C41.2625 83.8527 40.1746 80.3953 38.9381 75.9439C38.1087 72.9578 39.3695 69.722 39.3695 66.7246C39.3695 62.6312 38.8548 58.0854 39.5293 54.0381C40.3264 49.2557 40.4534 45.1304 39.2417 40.4568C38.7277 38.4742 39.3019 36.324 39.018 34.3053C38.7522 32.4152 37.6075 30.9148 37.0687 29.1284C36.6925 27.8808 36.4935 23.9587 36.4935 25.2617C36.4935 26.8399 36.2956 28.6837 35.9183 30.2149C35.1222 33.4461 33.7108 36.2538 33.6175 39.7058C33.5123 43.598 32.7546 47.3719 32.7546 51.2739V60.9725C32.7546 63.6541 33.1952 67.3024 32.0197 69.7604C30.8019 72.3066 30.0757 74.9755 28.856 77.5257C27.5643 80.2266 27.79 82.408 29.1596 85.1472Z" fill="#BCF673" stroke="#ACED5B" stroke-linecap="round"/>
</g>
</svg>
