<svg width="110" height="110" viewBox="0 0 110 110" fill="none" xmlns="http://www.w3.org/2000/svg">
<g id="&#235;&#167;&#136;&#235;&#138;&#152;">
<g id="Group 817043">
<path id="Ellipse 33" d="M63.1851 63.4357H63.1601L63.1353 63.4382C59.3916 63.8126 54.4672 62.4835 50.4793 59.5227C46.5062 56.5731 43.5 52.0338 43.5 45.9992C43.5 41.6554 43.692 38.7877 44.6617 36.5153C45.6121 34.2882 47.3389 32.5729 50.5734 30.6288L54.4414 29.5738C54.4547 29.5921 54.4686 29.6112 54.4831 29.6311C54.6427 29.8501 54.8757 30.1651 55.171 30.5515C55.7615 31.3238 56.6021 32.3828 57.6034 33.5297C59.5944 35.8102 62.2631 38.4885 64.8865 39.9195C69.1634 42.2524 72.072 43.9516 74.2776 45.9799C76.4647 47.9912 77.98 50.3459 79.4106 54.0244C80.0595 55.693 80.1068 57.0675 79.6939 58.196C79.2806 59.3255 78.3773 60.2876 76.9691 61.0729C74.1285 62.657 69.3862 63.4357 63.1851 63.4357Z" fill="#F7ECC9" stroke="#F6E3A9"/>
<path id="Vector 97" d="M70.5605 46.8561C54.6452 45.3034 53.0925 38.3163 52.7043 33.6582" stroke="#F6E3A9" stroke-linecap="round"/>
</g>
<g id="Group 817044">
<path id="Ellipse 33_2" d="M36.5718 59.7216L36.5894 59.7039L36.6051 59.6846C38.9771 56.7641 43.3899 54.206 48.3007 53.462C53.1932 52.7208 58.5325 53.7857 62.8149 58.0375C65.8974 61.0979 67.7972 63.2547 68.7266 65.5439C69.6374 67.7874 69.6379 70.2214 68.7387 73.8865L66.762 77.3746C66.7397 77.3712 66.7163 77.3676 66.692 77.3638C66.4242 77.3228 66.0365 77.2662 65.5542 77.2036C64.5901 77.0784 63.2463 76.9289 61.727 76.8314C58.7059 76.6375 54.9249 76.6443 52.0611 77.4977C47.3922 78.8891 44.1371 79.7559 41.1438 79.8921C38.1755 80.0271 35.4369 79.4433 31.8186 77.8668C30.1773 77.1516 29.1685 76.2167 28.6586 75.1286C28.1482 74.0395 28.1019 72.7207 28.5368 71.168C29.414 68.0362 32.2027 64.1222 36.5718 59.7216Z" fill="#F7ECC9" stroke="#F6E3A9"/>
<path id="Vector 97_2" d="M45.9999 77C59.3589 68.8631 62.5 72.5 64.4999 75" stroke="#F6E3A9" stroke-linecap="round"/>
</g>
</g>
</svg>
