<svg width="110" height="110" viewBox="0 0 110 110" fill="none" xmlns="http://www.w3.org/2000/svg">
<g id="&#236;&#150;&#145;&#237;&#140;&#140;">
<path id="Vector 83" d="M46.5552 16.2155C44.5139 17.1413 45.829 38.8705 48.5742 46.605C49.4674 49.1217 50.9243 51.3036 52.6105 53.1475C59.0625 46.3729 49.171 18.6637 46.5552 16.2155Z" fill="#00B187" stroke="#009773" stroke-linecap="round"/>
<path id="Vector 84" d="M56.0306 16.0733C53.8045 16.6818 49.9064 38.219 50.7555 46.2207C51.0318 48.8244 51.9416 51.1822 53.1576 53.2419C61.113 47.5386 58.0153 18.8636 56.0306 16.0733Z" fill="#00B187" stroke="#009773" stroke-linecap="round"/>
<path id="Vector 85" d="M71.1548 17.8622C68.7978 17.8622 56.106 37.1967 53.5604 44.9733C52.7321 47.5036 52.6051 49.9654 52.8918 52.2246C62.7913 48.8918 71.8619 21.0098 71.1548 17.8622Z" fill="#00B187" stroke="#009773" stroke-linecap="round"/>
<path id="Ellipse 33" d="M84 72.8967C84 88.9225 71.0163 94.0001 55 94.0001C38.9837 94.0001 26 88.9225 26 72.8967C26 61.7307 40.0783 51.611 48.6168 46.5001L54.5 45.4C54.5 45.4 58.5 44.8299 59.5 45.4C67.6458 50.0426 84 60.862 84 72.8967Z" fill="#FFB773"/>
<path id="Ellipse 34" d="M48.6168 46.5C40.0783 51.6108 26 61.7306 26 72.8966C26 88.9223 38.9837 94 55 94C71.0163 94 84 88.9223 84 72.8966C84 61.9955 70.5818 52.0916 62 46.8722" stroke="#FF8D22" stroke-linecap="round"/>
<path id="Vector 95" d="M48.0001 51C36.5002 60.5 23.0002 81.5 46.0002 89" stroke="#FF8D22" stroke-linecap="round"/>
<path id="Vector 96" d="M60.9997 51.5C70.9998 60 80.2997 82.2907 63.9998 89" stroke="#FF8D22" stroke-linecap="round"/>
<path id="Vector 97" d="M70.5 56C84.5 68.5 79.0002 82 75.5001 85" stroke="#FF8D22" stroke-linecap="round"/>
<path id="Vector 98" d="M57.5002 52C64.5002 67 62.5002 86 59.0001 89" stroke="#FF8D22" stroke-linecap="round"/>
<path id="Vector 99" d="M53.4999 52.5C41.5589 67.5 48.4706 86 54.4412 89" stroke="#FF8D22" stroke-linecap="round"/>
</g>
</svg>
