<svg width="110" height="110" viewBox="0 0 110 110" fill="none" xmlns="http://www.w3.org/2000/svg">
<g id="&#234;&#176;&#144;&#234;&#183;&#164;">
<g id="Group 817045">
<path id="Vector 1184" d="M51.9575 28.6782C50.5291 29.4072 50.1857 40.4335 54.6152 45.4069C55.0998 45.951 55.3415 46.1665 55.9441 45.859C56.387 45.6329 58.8185 45.7051 57.7158 44.9548C50.6272 40.1313 53.434 31.5417 55.0581 28.6782C55.2058 27.774 53.7294 27.7739 51.9575 28.6782Z" fill="#83C215" stroke="#6BA505" stroke-linecap="round"/>
<path id="Ellipse 35" d="M46.4189 41.8246L46.4818 41.8002L46.536 41.76C47.5753 40.9889 48.22 40.8108 48.7019 40.7671C48.9103 40.7481 49.0932 40.753 49.3005 40.7586C49.3527 40.76 49.4065 40.7614 49.4626 40.7625C49.7282 40.7677 50.0282 40.764 50.3624 40.6826C51.0226 40.551 51.6361 40.3151 52.1995 40.0984C52.3301 40.0482 52.458 39.999 52.5831 39.9524C53.2703 39.6965 53.9139 39.5 54.6349 39.5C55.3576 39.5 55.9112 39.6744 56.4972 39.9026C56.5993 39.9423 56.7037 39.9844 56.811 40.0276C57.3125 40.2296 57.8769 40.4569 58.554 40.5905L58.6375 40.607L58.7218 40.5949C59.9304 40.4215 60.6079 40.5567 61.0792 40.742C61.3207 40.8369 61.5215 40.9499 61.7419 41.0738L61.7541 41.0807C61.9713 41.2028 62.2203 41.3428 62.5089 41.4387C71.26 44.348 77.5 52.1853 77.5 61.3666C77.5 73.0099 67.4557 82.5 55 82.5C42.5443 82.5 32.5 73.0099 32.5 61.3666C32.5 52.5647 38.2341 44.999 46.4189 41.8246Z" fill="#FF9315" stroke="#FF7715"/>
<path id="Vector 68" d="M48.2061 44.2064L47.9997 44" stroke="#FF7715" stroke-linecap="round"/>
<path id="Vector 1185" d="M44.2061 47.2064L43.9997 47" stroke="#FF7715" stroke-linecap="round"/>
<path id="Vector 1186" d="M51.2061 47.2064L50.9997 47" stroke="#FF7715" stroke-linecap="round"/>
</g>
</g>
</svg>
