<svg width="110" height="110" viewBox="0 0 110 110" fill="none" xmlns="http://www.w3.org/2000/svg">
<g id="&#235;&#176;&#176;">
<path id="Vector 1182" d="M31 85C7.50005 60 21.9442 33.6113 36.4442 29.6113C40.8441 27.9243 52.444 30.4081 57.9441 31.111C69.4441 27.6114 84.9601 25.8048 91 45C95.0557 57.8892 95.5 76.3123 76.5 87C70.8628 90.171 57.2989 89.7605 53.4441 90.111C50.0049 90.4237 37.5 91.915 31 85Z" fill="#FFEAA0" stroke="#FFCB45" stroke-linecap="round"/>
<path id="Vector 67" d="M71 46.2064L71 46" stroke="#FFCB45" stroke-linecap="round"/>
<path id="Vector 1187" d="M80 43.2064L80 43" stroke="#FFCB45" stroke-linecap="round"/>
<path id="Vector 74" d="M66 58.2064L66 58" stroke="#FFCB45" stroke-linecap="round"/>
<path id="Vector 68" d="M52.0527 44.2064L51.8464 44" stroke="#FFCB45" stroke-linecap="round"/>
<path id="Vector 69" d="M46.9709 63.8453L47.1772 63.6389" stroke="#FFCB45" stroke-linecap="round"/>
<path id="Vector 1185" d="M29.9997 68.2064L30.2061 68" stroke="#FFCB45" stroke-linecap="round"/>
<path id="Vector 75" d="M30.9997 46.2064L31.2061 46" stroke="#FFCB45" stroke-linecap="round"/>
<path id="Vector 1186" d="M38.9997 54.2064L39.2061 54" stroke="#FFCB45" stroke-linecap="round"/>
<path id="Vector 70" d="M84.6191 58.2064C84.4143 58.0243 84.266 58 84 58" stroke="#FFCB45" stroke-linecap="round"/>
<path id="Vector 71" d="M55.0195 76.6404C54.9958 76.8305 54.9525 76.7771 54.8132 76.8468" stroke="#FFCB45" stroke-linecap="round"/>
<path id="Vector 72" d="M76 73.2064L76 73" stroke="#FFCB45" stroke-linecap="round"/>
<path id="Vector 73" d="M52.1299 30.2064L52.1299 30" stroke="#E18500" stroke-linecap="round"/>
<path id="Vector 1184" d="M53.4998 19.5C51.8874 20.3062 51.4998 32.5 56.4998 38C57.0467 38.6017 57.3195 38.8401 57.9998 38.5C58.4998 38.25 61.2444 38.3298 59.9997 37.5001C51.9981 32.1658 55.1664 22.6667 56.9997 19.5C57.1664 18.5 55.4998 18.5 53.4998 19.5Z" fill="#A14503" stroke="#974206" stroke-linecap="round"/>
<path id="Vector 1183" d="M51 35C52.5 38 57.5 42.2 65.5 35" stroke="#FFCB45" stroke-linecap="round"/>
</g>
</svg>
