<svg width="110" height="110" viewBox="0 0 110 110" fill="none" xmlns="http://www.w3.org/2000/svg">
<g id="&#234;&#176;&#144;&#236;&#158;&#144;">
<path id="Ellipse 33" d="M55.1362 90.5C44.752 90.5 38.4732 85.8443 35.5 80C31.6828 72.4966 33 65.5 31 53.5C32 41 35.0873 38.0319 37.7519 32.9344C40.9344 26.8463 46.4137 23 55.1362 23C66.3021 23 68.4419 25.9615 73.5527 34.5C73.5527 34.5 81.3474 45.043 82.6328 51.5C84.1522 59.132 81.1028 71 80.5327 72C77.4256 82.2258 72.252 88.5 55.1362 90.5Z" fill="#F6B961"/>
<path id="Ellipse 34" d="M55.1362 23C46.4137 23 40.9344 26.8463 37.7519 32.9344C35.0873 38.0319 32 41 31 53.5C33 65.5 31.6828 72.4966 35.5 80C38.4732 85.8443 44.752 90.5 55.1362 90.5C72.252 88.5 77.4256 82.2258 80.5327 72C81.1028 71 84.1522 59.132 82.6328 51.5C81.3474 45.043 73.5527 34.5 73.5527 34.5C69.0024 26.8979 66.8072 23.7166 58.5 23.1103" stroke="#E18500" stroke-linecap="round"/>
<path id="Vector 67" d="M63.4805 43.6207L63.4805 43.4143" stroke="#E18500" stroke-linecap="round"/>
<path id="Vector 74" d="M72.0527 52.2064L72.0527 52" stroke="#E18500" stroke-linecap="round"/>
<path id="Vector 68" d="M52.0527 44.2064L51.8464 44" stroke="#E18500" stroke-linecap="round"/>
<path id="Vector 69" d="M46.9709 63.8453L47.1772 63.6389" stroke="#E18500" stroke-linecap="round"/>
<path id="Vector 75" d="M38.9997 50.2064L39.2061 50" stroke="#E18500" stroke-linecap="round"/>
<path id="Vector 70" d="M61.2104 62.1942C61.0056 62.0121 60.8573 61.9878 60.5913 61.9878" stroke="#E18500" stroke-linecap="round"/>
<path id="Vector 71" d="M55.0195 76.6404C54.9958 76.8305 54.9525 76.7771 54.8132 76.8468" stroke="#E18500" stroke-linecap="round"/>
<path id="Vector 72" d="M69.0527 70.2427L69.0527 70.0364" stroke="#E18500" stroke-linecap="round"/>
<path id="Vector 73" d="M52.1299 30.2064L52.1299 30" stroke="#E18500" stroke-linecap="round"/>
</g>
</svg>
