<svg width="110" height="110" viewBox="0 0 110 110" fill="none" xmlns="http://www.w3.org/2000/svg">
<g id="&#235;&#178;&#188;" clip-path="url(#clip0_907_22233)">
<g id="Group 817048">
<path id="Vector 1214" d="M26.0322 30.2583C29.7871 30.2583 33.2585 32.6645 36.5015 34.3109C41.8486 37.0256 46.9855 41.6508 50.1067 46.7582C57.4279 58.7384 59.9005 71.8141 59.9005 85.6922C59.9005 92.3295 59.3937 98.7924 58.5737 105.352C58.3101 107.461 56.861 109.414 56.861 111.455" stroke="#FFB14A" stroke-linecap="round"/>
<path id="Vector 1216" d="M41.2293 39.8109C39.3032 39.8109 36.4771 39.1356 35.4882 41.1135C34.6204 42.8491 40.2414 41.4576 41.2293 39.8109Z" stroke="#FFB14A" stroke-width="3" stroke-linecap="round"/>
<path id="Vector 1224" d="M35.7708 34.1112C33.8447 34.1112 31.0186 33.4359 30.0297 35.4138C29.1619 37.1494 34.7829 35.7578 35.7708 34.1112Z" stroke="#FFB14A" stroke-width="3" stroke-linecap="round"/>
<path id="Vector 1225" d="M27.7708 31.1112C25.8447 31.1112 23.0186 30.4359 22.0297 32.4138C21.1619 34.1494 26.7829 32.7578 27.7708 31.1112Z" stroke="#FFB14A" stroke-width="3" stroke-linecap="round"/>
<path id="Vector 1217" d="M46.2687 45.3244C45.5489 45.3244 44.8157 45.2834 44.0977 45.3244C43.6482 45.3501 41.2779 46.7828 42.1679 47.0371C44.3211 47.6523 46.7181 46.627 48.874 46.627" stroke="#F59D29" stroke-width="3" stroke-linecap="round"/>
<path id="Vector 1218" d="M51.348 52.4032C49.6258 51.6377 46.9498 51.7254 45.7998 53.3681C44.977 54.5435 50.0039 53.7058 50.4796 53.7058" stroke="#FFB14A" stroke-width="3" stroke-linecap="round"/>
<path id="Vector 1229" d="M55.578 57.4647C53.8558 56.6993 51.1797 56.7869 50.0298 58.4296C49.2069 59.605 54.2339 58.7673 54.7096 58.7673" stroke="#FFB14A" stroke-width="3" stroke-linecap="round"/>
<path id="Vector 1220" d="M41.664 37.2057C38.9976 37.2057 39.0587 34.6891 39.0587 32.6465C39.0587 30.975 40.3827 33.0146 40.5784 33.5149C41.1371 34.9425 41.2298 36.1315 41.2298 37.6399" stroke="#FFB14A" stroke-width="3" stroke-linecap="round"/>
<path id="Vector 1227" d="M36.5443 32.2057C33.878 32.2057 33.9391 29.6891 33.9391 27.6465C33.9391 25.975 35.263 28.0146 35.4588 28.5149C36.0175 29.9425 36.1101 31.1315 36.1101 32.6399" stroke="#FFB14A" stroke-width="3" stroke-linecap="round"/>
<path id="Vector 1228" d="M29.5443 30.2057C26.878 30.2057 26.9391 27.6891 26.9391 25.6465C26.9391 23.975 28.263 26.0146 28.4588 26.5149C29.0175 27.9425 29.1101 29.1315 29.1101 30.6399" stroke="#FFB14A" stroke-width="3" stroke-linecap="round"/>
<path id="Vector 1221" d="M46.4399 41.5481C45.6691 40.7773 45.0983 35.8028 46.4399 36.4341C48.3887 37.3512 47.7425 41.125 47.7425 42.8508" stroke="#FFB14A" stroke-width="3" stroke-linecap="round"/>
<path id="Vector 1222" d="M50.7822 48.9295C50.0772 47.3433 50.0976 43.8683 52.519 44.1532C53.9451 44.321 52.3317 50.9815 52.0848 51.969" stroke="#FFB14A" stroke-width="3" stroke-linecap="round"/>
<path id="Vector 1226" d="M56.939 58.5C56.234 56.9138 55.6562 51.7318 58.0776 52.0167C59.5036 52.1844 57.8903 58.8449 57.6434 59.8324" stroke="#F59D29" stroke-width="3" stroke-linecap="round"/>
</g>
<g id="Group 817049">
<path id="Vector 1214_2" d="M37.5493 26.8284C41.2589 27.4095 44.3161 30.3239 47.2652 32.4525C52.1277 35.9619 56.4869 41.3265 58.78 46.8554C64.1589 59.8243 64.578 73.1251 62.4301 86.836C61.4029 93.3933 59.902 99.7 58.0766 106.054C57.4897 108.097 55.756 109.801 55.44 111.818" stroke="#FFB14A" stroke-linecap="round"/>
<path id="Vector 1216_2" d="M51.0852 38.6179C49.1823 38.3198 46.4948 37.2152 45.2116 39.0163C44.0857 40.5967 49.8543 40.0918 51.0852 38.6179Z" stroke="#FFB14A" stroke-width="3" stroke-linecap="round"/>
<path id="Vector 1224_2" d="M46.5745 32.1421C44.6716 31.844 41.984 30.7394 40.7009 32.5404C39.5749 34.1208 45.3436 33.616 46.5745 32.1421Z" stroke="#FFB14A" stroke-width="3" stroke-linecap="round"/>
<path id="Vector 1225_2" d="M39.135 27.9402C37.2321 27.6421 34.5446 26.5375 33.2614 28.3385C32.1355 29.9189 37.9041 29.4141 39.135 27.9402Z" stroke="#FFB14A" stroke-width="3" stroke-linecap="round"/>
<path id="Vector 1217_2" d="M55.2107 44.845C54.4995 44.7336 53.7815 44.5796 53.0658 44.509C52.6177 44.4648 50.0543 45.5134 50.8942 45.9024C52.9263 46.8434 55.453 46.2015 57.5829 46.5351" stroke="#FFB14A" stroke-width="3" stroke-linecap="round"/>
<path id="Vector 1218_2" d="M59.133 52.6245C57.55 51.6018 54.8926 51.2742 53.5023 52.7192C52.5074 53.753 57.6035 53.7035 58.0734 53.7771" stroke="#F59D29" stroke-width="3" stroke-linecap="round"/>
<path id="Vector 1229_2" d="M62.5285 58.2798C60.9455 57.2571 58.2881 56.9295 56.8978 58.3744C55.9029 59.4083 60.999 59.3587 61.4689 59.4324" stroke="#FFB14A" stroke-width="3" stroke-linecap="round"/>
<path id="Vector 1220_2" d="M51.9172 36.1114C49.283 35.6987 49.7329 33.2219 50.049 31.2039C50.3077 29.5525 51.3 31.7725 51.416 32.2971C51.747 33.794 51.6545 34.9829 51.4211 36.4731" stroke="#FFB14A" stroke-width="3" stroke-linecap="round"/>
<path id="Vector 1227_2" d="M47.6336 30.3792C44.9994 29.9665 45.4492 27.4897 45.7653 25.4717C46.024 23.8203 47.0163 26.0403 47.1323 26.5649C47.4633 28.0618 47.3708 29.2507 47.1374 30.741" stroke="#FFB14A" stroke-width="3" stroke-linecap="round"/>
<path id="Vector 1228_2" d="M41.0276 27.3201C38.3934 26.9074 38.8432 24.4307 39.1593 22.4126C39.418 20.7613 40.4104 22.9812 40.5264 23.5058C40.8573 25.0027 40.7649 26.1916 40.5314 27.6819" stroke="#FFB14A" stroke-width="3" stroke-linecap="round"/>
<path id="Vector 1221_2" d="M55.9641 41.1406C55.3219 40.2598 55.5279 35.2569 56.7556 36.0883C58.539 37.2959 57.3166 40.9242 57.0495 42.6292" stroke="#FFB14A" stroke-width="3" stroke-linecap="round"/>
<path id="Vector 1222_2" d="M59.1118 49.1051C58.6608 47.4289 59.2188 43.999 61.5669 44.6552C62.9498 45.0416 60.325 51.3721 59.9283 52.3096" stroke="#FFB14A" stroke-width="3" stroke-linecap="round"/>
<path id="Vector 1226_2" d="M63.713 59.5132C63.2621 57.8369 63.4932 52.628 65.8414 53.2842C67.2243 53.6706 64.5995 60.0011 64.2028 60.9386" stroke="#FFB14A" stroke-width="3" stroke-linecap="round"/>
</g>
<g id="Group 817050">
<path id="Vector 1214_3" d="M15.8579 52.782C19.5675 52.2008 23.3695 54.0407 26.8283 55.1653C32.5311 57.0196 38.322 60.794 42.1961 65.3567C51.2835 76.0593 55.7501 88.5947 57.8982 102.306C58.9256 108.863 59.4253 115.326 59.6306 121.934C59.6966 124.059 58.5672 126.212 58.8831 128.229" stroke="#FFB14A" stroke-linecap="round"/>
<path id="Vector 1216_3" d="M32.3506 59.8673C30.4477 60.1655 27.5511 59.9357 26.8802 62.0429C26.2915 63.8919 31.6294 61.6471 32.3506 59.8673Z" stroke="#FFB14A" stroke-width="3" stroke-linecap="round"/>
<path id="Vector 1224_3" d="M26.0757 55.0812C24.1728 55.3793 21.2762 55.1496 20.6053 57.2568C20.0166 59.1058 25.3545 56.8609 26.0757 55.0812Z" stroke="#FFB14A" stroke-width="3" stroke-linecap="round"/>
<path id="Vector 1225_3" d="M17.7075 53.3556C15.8046 53.6537 12.908 53.424 12.2371 55.5312C11.6485 57.3802 16.9863 55.1353 17.7075 53.3556Z" stroke="#FFB14A" stroke-width="3" stroke-linecap="round"/>
<path id="Vector 1217_3" d="M38.1826 64.5342C37.4715 64.6457 36.7407 64.7186 36.0378 64.8703C35.5976 64.9652 33.4777 66.7476 34.3963 66.8611C36.6188 67.1356 38.8282 65.7516 40.9581 65.4179" stroke="#F59D29" stroke-width="3" stroke-linecap="round"/>
<path id="Vector 1218_3" d="M44.2963 70.7415C42.4764 70.2519 39.8462 70.7527 38.9643 72.5536C38.3333 73.8422 43.1701 72.2365 43.64 72.1629" stroke="#F59D29" stroke-width="3" stroke-linecap="round"/>
<path id="Vector 1229_3" d="M49.2587 75.0872C47.4388 74.5976 44.8086 75.0984 43.9267 76.8993C43.2957 78.1879 48.1325 76.5822 48.6024 76.5086" stroke="#F59D29" stroke-width="3" stroke-linecap="round"/>
<path id="Vector 1220_3" d="M32.3763 57.2262C29.7421 57.6389 29.4129 55.1433 29.0968 53.1252C28.838 51.4739 30.4617 53.284 30.7326 53.748C31.5055 55.0719 31.7811 56.2322 32.0145 57.7224" stroke="#FFB14A" stroke-width="3" stroke-linecap="round"/>
<path id="Vector 1227_3" d="M26.5448 53.0788C23.9106 53.4915 23.5814 50.9958 23.2652 48.9778C23.0065 47.3264 24.6302 49.1365 24.9011 49.6005C25.6739 50.9245 25.9495 52.0847 26.183 53.575" stroke="#FFB14A" stroke-width="3" stroke-linecap="round"/>
<path id="Vector 1228_3" d="M19.3197 52.1864C16.6855 52.5991 16.3563 50.1035 16.0401 48.0855C15.7814 46.4341 17.4051 48.2442 17.676 48.7082C18.4488 50.0321 18.7244 51.1924 18.9579 52.6826" stroke="#FFB14A" stroke-width="3" stroke-linecap="round"/>
<path id="Vector 1221_3" d="M37.7674 60.7771C36.8866 60.1348 35.5527 55.3086 36.9758 55.7247C39.0431 56.3291 38.9889 60.1574 39.256 61.8624" stroke="#FFB14A" stroke-width="3" stroke-linecap="round"/>
<path id="Vector 1222_3" d="M43.1994 67.3975C42.2574 65.9395 41.7397 62.5032 44.176 62.4099C45.6108 62.3549 45.0478 69.1848 44.9568 70.1987" stroke="#FFB14A" stroke-width="3" stroke-linecap="round"/>
<path id="Vector 1226_3" d="M50.7635 75.8996C49.8215 74.4416 48.4486 69.4115 50.8849 69.3182C52.3197 69.2632 51.7567 76.0931 51.6657 77.107" stroke="#F59D29" stroke-width="3" stroke-linecap="round"/>
</g>
<g id="Group 817052">
<path id="Vector 1214_4" d="M29.2158 44.4624C32.9656 44.6561 36.3083 47.2382 39.462 49.0498C44.6619 52.0367 49.5534 56.9208 52.4069 62.1824C59.1003 74.5244 60.8949 87.7102 60.1789 101.57C59.8364 108.198 58.9969 114.626 57.8396 121.135C57.4675 123.228 55.9196 125.103 55.8143 127.142" stroke="#FFB14A" stroke-linecap="round"/>
<path id="Vector 1216_4" d="M43.9004 54.7864C41.9768 54.6871 39.1893 53.8668 38.0997 55.7911C37.1435 57.4796 42.8288 56.3799 43.9004 54.7864Z" stroke="#F59D29" stroke-width="3" stroke-linecap="round"/>
<path id="Vector 1224_4" d="M38.7427 48.8128C36.8191 48.7134 34.0316 47.8932 32.9419 49.8175C31.9858 51.506 37.6711 50.4063 38.7427 48.8128Z" stroke="#FFB14A" stroke-width="3" stroke-linecap="round"/>
<path id="Vector 1225_4" d="M30.9082 45.4039C28.9846 45.3045 26.1972 44.4843 25.1075 46.4085C24.1513 48.0971 29.8366 46.9974 30.9082 45.4039Z" stroke="#FFB14A" stroke-width="3" stroke-linecap="round"/>
<path id="Vector 1217_4" d="M48.6483 60.5525C47.9294 60.5154 47.1993 60.4366 46.4801 60.4405C46.0299 60.443 43.5889 61.7515 44.4645 62.0514C46.5832 62.7768 49.0298 61.8766 51.1829 61.9878" stroke="#F59D29" stroke-width="3" stroke-linecap="round"/>
<path id="Vector 1218_4" d="M53.3556 67.8839C51.6752 67.0306 48.9982 66.9801 47.765 68.5613C46.8826 69.6927 51.9461 69.1155 52.4211 69.14" stroke="#F59D29" stroke-width="3" stroke-linecap="round"/>
<path id="Vector 1229_4" d="M57.3185 73.1571C55.6381 72.3038 52.9611 72.2533 51.7279 73.8345C50.8455 74.9659 55.909 74.3887 56.384 74.4132" stroke="#F59D29" stroke-width="3" stroke-linecap="round"/>
<path id="Vector 1220_4" d="M44.4681 52.2072C41.8053 52.0696 41.9961 49.5596 42.1015 47.5197C42.1878 45.8504 43.4047 47.9556 43.5744 48.4653C44.0587 49.9199 44.0899 51.112 44.012 52.6184" stroke="#FFB14A" stroke-width="3" stroke-linecap="round"/>
<path id="Vector 1227_4" d="M39.6136 46.9496C36.9508 46.812 37.1416 44.302 37.247 42.2621C37.3333 40.5928 38.5502 42.698 38.7199 43.2077C39.2042 44.6623 39.2354 45.8545 39.1576 47.3608" stroke="#FFB14A" stroke-width="3" stroke-linecap="round"/>
<path id="Vector 1228_4" d="M32.7259 44.5912C30.0631 44.4536 30.254 41.9436 30.3593 39.9037C30.4456 38.2344 31.6625 40.3396 31.8322 40.8494C32.3165 42.3039 32.3477 43.4961 32.2699 45.0024" stroke="#FFB14A" stroke-width="3" stroke-linecap="round"/>
<path id="Vector 1221_4" d="M49.0144 56.7901C48.2844 55.9805 47.9711 50.9832 49.2783 51.6829C51.1771 52.6993 50.3371 56.4348 50.2481 58.1582" stroke="#F59D29" stroke-width="3" stroke-linecap="round"/>
<path id="Vector 1222_4" d="M52.9695 64.3858C52.3473 62.7653 52.5469 59.296 54.9504 59.7054C56.3659 59.9466 54.411 66.5149 54.1135 67.4884" stroke="#F59D29" stroke-width="3" stroke-linecap="round"/>
<path id="Vector 1226_4" d="M58.6245 74.2612C58.0024 72.6408 57.6927 67.4359 60.0962 67.8453C61.5116 68.0864 59.5568 74.6548 59.2593 75.6282" stroke="#F59D29" stroke-width="3" stroke-linecap="round"/>
</g>
<g id="Group 817051">
<path id="Vector 1214_5" d="M94.1934 34.8059C90.4595 34.4093 86.7534 36.4354 83.3546 37.7301C77.7508 39.8648 72.154 43.9217 68.5109 48.6708C59.9653 59.8108 56.1255 72.5522 54.6598 86.3527C53.9588 92.9528 53.7801 99.4331 53.9026 106.043C53.9421 108.168 55.1768 110.263 54.9612 112.293" stroke="#FFB14A" stroke-linecap="round"/>
<path id="Vector 1216_5" d="M78.0723 42.6999C79.9877 42.9034 82.8693 42.5303 83.6438 44.6016C84.3234 46.4192 78.8808 44.4417 78.0723 42.6999Z" stroke="#FFB14A" stroke-width="3" stroke-linecap="round"/>
<path id="Vector 1224_5" d="M84.1026 37.6086C86.0179 37.8121 88.8995 37.439 89.6741 39.5103C90.3537 41.3279 84.9111 39.3504 84.1026 37.6086Z" stroke="#FFB14A" stroke-width="3" stroke-linecap="round"/>
<path id="Vector 1225_5" d="M92.3745 35.4704C94.2899 35.6739 97.1715 35.3008 97.946 37.3722C98.6257 39.1897 93.1831 37.2122 92.3745 35.4704Z" stroke="#FFB14A" stroke-width="3" stroke-linecap="round"/>
<path id="Vector 1217_5" d="M72.479 47.6503C73.1948 47.7263 73.9282 47.7629 74.6379 47.8796C75.0822 47.9526 77.2878 49.6277 76.376 49.7865C74.1698 50.1709 71.8946 48.8982 69.7507 48.6705" stroke="#F59D29" stroke-width="3" stroke-linecap="round"/>
<path id="Vector 1218_5" d="M66.6803 54.1531C68.4738 53.5739 71.1256 53.9437 72.0956 55.6986C72.7897 56.9544 67.8793 55.5904 67.4063 55.5402" stroke="#F59D29" stroke-width="3" stroke-linecap="round"/>
<path id="Vector 1229_5" d="M61.9396 58.7395C63.733 58.1603 66.3849 58.5301 67.3549 60.2851C68.049 61.5408 63.1386 60.1769 62.6656 60.1266" stroke="#F59D29" stroke-width="3" stroke-linecap="round"/>
<path id="Vector 1220_5" d="M77.9155 40.0635C80.567 40.3451 80.772 37.8362 80.9878 35.805C81.1643 34.1428 79.6323 36.0312 79.3848 36.508C78.6785 37.8687 78.4608 39.0412 78.3015 40.5411" stroke="#FFB14A" stroke-width="3" stroke-linecap="round"/>
<path id="Vector 1227_5" d="M83.5347 35.6321C86.1861 35.9137 86.3912 33.4048 86.6069 31.3736C86.7834 29.7114 85.2515 31.5998 85.0039 32.0766C84.2976 33.4373 84.0799 34.6098 83.9206 36.1097" stroke="#FFB14A" stroke-width="3" stroke-linecap="round"/>
<path id="Vector 1228_5" d="M90.7066 34.3826C93.358 34.6642 93.563 32.1553 93.7788 30.1241C93.9553 28.4619 92.4233 30.3503 92.1758 30.8271C91.4695 32.1878 91.2518 33.3603 91.0925 34.8602" stroke="#FFB14A" stroke-width="3" stroke-linecap="round"/>
<path id="Vector 1221_5" d="M72.7076 43.8772C73.5555 43.1921 74.6485 38.3057 73.2477 38.7918C71.213 39.4979 71.4569 43.3189 71.2747 45.035" stroke="#FFB14A" stroke-width="3" stroke-linecap="round"/>
<path id="Vector 1222_5" d="M67.6098 50.7587C68.4784 49.2558 68.8251 45.7981 66.3872 45.8257C64.9514 45.8419 65.8523 52.6355 65.9935 53.6436" stroke="#FFB14A" stroke-width="3" stroke-linecap="round"/>
<path id="Vector 1226_5" d="M60.4771 59.6253C61.3457 58.1224 62.4676 53.0304 60.0296 53.0579C58.5939 53.0742 59.4947 59.8678 59.6359 60.8758" stroke="#F59D29" stroke-width="3" stroke-linecap="round"/>
</g>
</g>
<defs>
<clipPath id="clip0_907_22233">
<rect width="110" height="110" fill="white"/>
</clipPath>
</defs>
</svg>
