<svg width="110" height="110" viewBox="0 0 110 110" fill="none" xmlns="http://www.w3.org/2000/svg">
<g id="&#234;&#179;&#160;&#236;&#182;&#148;">
<g id="Group 817041">
<g id="Vector 84">
<path d="M69.3417 45.1181C79.5722 43.0374 81.8826 34.2106 84.1474 25.8815C84.3559 25.1147 85.1883 25.4744 85.9171 28.497C84.6434 36.9724 76.3533 45.3038 76.0404 48.7406C74.8187 45.6169 70.8351 45.2541 69.3417 45.1181Z" fill="#0BB230"/>
<path d="M84.1474 25.8815L83.6084 25.8162L84.1474 25.8815ZM69.3417 45.1181L69.2424 45.5574C68.9806 45.5335 68.7902 45.3618 68.7898 45.1491C68.7895 44.9363 68.9792 44.7433 69.241 44.69L69.3417 45.1181ZM76.0404 48.7406L76.5908 48.7425C76.5714 48.9552 76.366 49.1372 76.102 49.1754C75.838 49.2137 75.5903 49.0974 75.5126 48.8987L76.0404 48.7406ZM85.9171 28.497L86.4593 28.3848L86.4753 28.4512L86.465 28.5199L85.9171 28.497ZM84.6863 25.9468C83.5584 30.095 82.4016 34.4448 80.2245 38.0144C78.0328 41.6078 74.7759 44.4614 69.4424 45.5462L69.241 44.69C74.138 43.6941 77.1515 41.0939 79.2389 37.6715C81.3408 34.2253 82.4716 29.9971 83.6084 25.8162L84.6863 25.9468ZM69.441 44.6788C70.9011 44.8118 75.2387 45.1835 76.5681 48.5825L75.5126 48.8987C74.3986 46.0503 70.7692 45.6964 69.2424 45.5574L69.441 44.6788ZM75.4899 48.7387C75.5771 47.7813 76.205 46.5409 77.0424 45.1502C77.8859 43.7494 79.0066 42.0968 80.1301 40.3297C82.398 36.7625 84.7454 32.6247 85.3692 28.4741L86.465 28.5199C85.815 32.8446 83.3806 37.1103 81.1068 40.6868C79.9594 42.4916 78.8693 44.0959 78.0306 45.4888C77.1859 46.8916 76.6601 47.9815 76.5908 48.7425L75.4899 48.7387ZM85.3749 28.6092C85.0115 27.1019 84.6363 26.3335 84.3779 26.0382C84.3164 25.9678 84.2831 25.9501 84.2873 25.9523C84.295 25.9562 84.3851 25.9982 84.5251 25.9665C84.6596 25.936 84.7156 25.8654 84.7185 25.8616C84.7216 25.8575 84.7044 25.8803 84.6863 25.9468L83.6084 25.8162C83.6424 25.691 83.6969 25.5573 83.7883 25.438C83.8795 25.3189 84.0404 25.1741 84.2937 25.1168C84.5523 25.0582 84.7751 25.1205 84.9263 25.1979C85.074 25.2736 85.1952 25.3827 85.2963 25.4983C85.6885 25.9467 86.0939 26.8695 86.4593 28.3848L85.3749 28.6092Z" fill="#028F21"/>
</g>
<path id="Vector 84_2" d="M18.6898 83.079C33.7195 77.9208 59.4804 59.6823 66.7256 46.2842C68.5683 42.8764 78.5515 44.3486 78.0878 49.4407C73.0368 60.9672 38.3807 87.3826 18.6898 83.079Z" fill="#F10000"/>
<path id="Vector 85" d="M66.7256 46.2842L67.2298 46.4358L66.7256 46.2842ZM18.6899 83.0789L18.5111 83.506C18.2895 83.4576 18.1399 83.3 18.138 83.1129C18.1361 82.9258 18.2823 82.75 18.5027 82.6744L18.6899 83.0789ZM78.0879 49.4407L78.6383 49.4426L78.6328 49.503L78.6074 49.5611L78.0879 49.4407ZM71.4694 44.0045C71.7725 44.0136 71.992 44.2188 71.9597 44.4628C71.9273 44.7068 71.6554 44.8971 71.3523 44.8879L71.4694 44.0045ZM76.8056 47.1045C76.6438 46.907 76.722 46.6305 76.9803 46.487C77.2386 46.3435 77.5791 46.3872 77.741 46.5847L76.8056 47.1045ZM67.2298 46.4358C63.5577 53.2264 55.2331 61.1907 45.9879 68.0853C36.7391 74.9825 26.4822 80.8734 18.8771 83.4835L18.5027 82.6744C25.9273 80.1263 36.0657 74.3189 45.2661 67.4577C54.47 60.594 62.6484 52.74 66.2215 46.1325L67.2298 46.4358ZM18.8687 82.6519C23.6257 83.6916 29.345 82.8855 35.3843 80.8536C41.4154 78.8244 47.7033 75.5931 53.5534 71.8579C59.4014 68.1239 64.7936 63.898 69.0345 59.8925C73.2861 55.8769 76.342 52.119 77.5684 49.3204L78.6074 49.5611C77.3082 52.5257 74.138 56.3921 69.8556 60.4367C65.5626 64.4915 60.1131 68.7616 54.2043 72.5344C48.2976 76.3058 41.9138 79.5918 35.7509 81.6654C29.5963 83.7361 23.5995 84.6181 18.5111 83.506L18.8687 82.6519ZM71.3523 44.8879C69.3802 44.8284 67.792 45.3961 67.2298 46.4358L66.2215 46.1325C67.0776 44.5492 69.3193 43.9395 71.4694 44.0045L71.3523 44.8879ZM77.5375 49.4388C77.6205 48.5264 77.3333 47.7486 76.8056 47.1045L77.741 46.5847C78.3864 47.3725 78.7394 48.332 78.6383 49.4426L77.5375 49.4388Z" fill="#CB0000"/>
</g>
<g id="Group 817042">
<g id="Vector 84_3">
<path d="M76.6128 61.7568C86.7627 64.2005 92.591 57.1805 98.1674 50.5921C98.6808 49.9856 99.2828 50.6637 98.6642 53.7108C93.9238 60.8511 82.8871 64.8919 81.1493 67.8735C81.3642 64.5263 77.9084 62.512 76.6128 61.7568Z" fill="#0BB230"/>
<path d="M98.1674 50.5921L97.7068 50.3049L98.1674 50.5921ZM76.6128 61.7568L76.3369 62.1128C76.1097 61.9804 76.0099 61.7442 76.0996 61.5513C76.1893 61.3584 76.4429 61.2638 76.7026 61.3263L76.6128 61.7568ZM81.1493 67.8735L81.6473 68.1081C81.5397 68.2927 81.2766 68.3706 81.0212 68.2936C80.7658 68.2165 80.5906 68.0063 80.6043 67.7934L81.1493 67.8735ZM98.6642 53.7108L99.2029 53.8385L99.1893 53.9055L99.1509 53.9633L98.6642 53.7108ZM98.6281 50.8794C95.8509 54.1606 92.9622 57.6123 89.4791 59.9254C85.9728 62.2539 81.8143 63.4613 76.5229 62.1873L76.7026 61.3263C81.5611 62.4961 85.3917 61.4153 88.7312 59.1976C92.0939 56.9645 94.9076 53.612 97.7068 50.3049L98.6281 50.8794ZM76.8886 61.4008C78.1553 62.1391 81.9281 64.3113 81.6944 67.9536L80.6043 67.7934C80.8002 64.7413 77.6614 62.8848 76.3369 62.1128L76.8886 61.4008ZM80.6514 67.6389C81.1355 66.8083 82.2292 65.9501 83.5765 65.0444C84.9335 64.1321 86.6482 63.109 88.4139 61.9832C91.9782 59.7107 95.856 56.955 98.1774 53.4582L99.1509 53.9633C96.7321 57.6068 92.7213 60.4417 89.1477 62.7201C87.3445 63.8698 85.6779 64.8622 84.3286 65.7693C82.9696 66.6829 82.032 67.4479 81.6473 68.1081L80.6514 67.6389ZM98.1255 53.583C98.434 52.0635 98.4191 51.2086 98.3101 50.8316C98.2841 50.7418 98.2613 50.7117 98.2642 50.7155C98.2695 50.7223 98.3335 50.7984 98.4737 50.8289C98.6084 50.8583 98.6891 50.8179 98.6933 50.8157C98.6978 50.8134 98.6726 50.8267 98.6281 50.8794L97.7068 50.3049C97.7905 50.2059 97.8965 50.1078 98.0297 50.0383C98.1628 49.969 98.3698 49.9059 98.6236 49.9612C98.8827 50.0176 99.0582 50.1682 99.1624 50.3024C99.2643 50.4335 99.3279 50.5836 99.3706 50.7311C99.5362 51.3034 99.5131 52.311 99.2029 53.8385L98.1255 53.583Z" fill="#028F21"/>
</g>
<path id="Vector 84_4" d="M14.6561 74.7188C30.4566 76.4048 61.5151 70.7801 73.749 61.7063C76.8606 59.3985 85.283 64.9566 82.7082 69.3742C73.2543 77.6806 30.6763 86.9502 14.6561 74.7188Z" fill="#F10000"/>
<path id="Vector 85_2" d="M73.7493 61.7063L74.1419 62.0571L73.7493 61.7063ZM14.6564 74.7188L14.3137 75.0301C14.1334 74.8924 14.0646 74.6863 14.142 74.516C14.2195 74.3457 14.4263 74.2483 14.658 74.273L14.6564 74.7188ZM82.7085 69.3742L83.2065 69.6088L83.1759 69.6612L83.1283 69.7031L82.7085 69.3742ZM79.0121 61.6481C79.2828 61.7846 79.3949 62.0634 79.2624 62.2708C79.1298 62.4782 78.8029 62.5356 78.5322 62.399L79.0121 61.6481ZM82.5352 66.7148C82.4722 66.4674 82.66 66.25 82.9548 66.2293C83.2496 66.2085 83.5396 66.3923 83.6027 66.6397L82.5352 66.7148ZM74.1419 62.0571C67.9414 66.656 57.0287 70.3497 45.7346 72.6845C34.4361 75.0203 22.65 76.0177 14.6549 75.1646L14.658 74.273C22.4633 75.1059 34.1067 74.134 45.3461 71.8105C56.5898 69.4861 67.3233 65.8305 73.3567 61.3556L74.1419 62.0571ZM14.9991 74.4075C18.8694 77.3624 24.3925 79.0522 30.7243 79.7666C37.0474 80.48 44.112 80.213 50.9931 79.304C57.8717 78.3953 64.5456 76.848 70.083 75.0133C75.6343 73.174 79.9934 71.0621 82.2888 69.0454L83.1283 69.7031C80.6967 71.8395 76.1883 74.0012 70.5967 75.8539C64.9912 77.7112 58.2467 79.2743 51.2966 80.1924C44.3489 81.1102 37.1743 81.3863 30.713 80.6572C24.2603 79.9292 18.4536 78.1909 14.3137 75.0301L14.9991 74.4075ZM78.5322 62.399C76.7705 61.5106 75.0913 61.3529 74.1419 62.0571L73.3567 61.3556C74.8024 60.2833 77.0914 60.6794 79.0121 61.6481L78.5322 62.399ZM82.2106 69.1396C82.672 68.3481 82.7409 67.5218 82.5352 66.7148L83.6027 66.6397C83.8542 67.6266 83.768 68.6454 83.2065 69.6088L82.2106 69.1396Z" fill="#CB0000"/>
</g>
</g>
</svg>
