<svg width="110" height="110" viewBox="0 0 110 110" fill="none" xmlns="http://www.w3.org/2000/svg">
<g id="&#235;&#148;&#184;&#234;&#184;&#176;">
<path id="Vector 1117" d="M30.2803 66.9336C27.165 28.8458 50.7915 30.0955 62.7623 36.3561C69.2527 38.2486 75.7475 36.3561 82.2377 46.839C85.4696 52.059 92.622 69.1151 70.9526 84.8411C58.6932 94.7419 33.3956 105.021 30.2803 66.9336Z" fill="#E40202" stroke="#B70000"/>
<path id="Vector 1139" d="M38 52C41.2 50 42 47.8333 42 47" stroke="#B70000" stroke-linecap="round"/>
<path id="Vector 1140" d="M53 49C56.2 47 57 44.8333 57 44" stroke="#B70000" stroke-linecap="round"/>
<path id="Vector 1141" d="M53 60C56.2 58 57 55.8333 57 55" stroke="#B70000" stroke-linecap="round"/>
<path id="Vector 1142" d="M39 68C42.2 66 43 63.8333 43 63" stroke="#B70000" stroke-linecap="round"/>
<path id="Vector 1143" d="M68 54C71.2 52 72 49.8333 72 49" stroke="#B70000" stroke-linecap="round"/>
<path id="Vector 1145" d="M54 75C57.2 73 58 70.8333 58 70" stroke="#B70000" stroke-linecap="round"/>
<path id="Vector 1146" d="M69 80C72.2 78 73 75.8333 73 75" stroke="#B70000" stroke-linecap="round"/>
<path id="Vector 1144" d="M72 67C75.2 65 76 62.8333 76 62" stroke="#B70000" stroke-linecap="round"/>
<path id="Vector 1147" d="M54 88C57.2 86 58 83.8333 58 83" stroke="#B70000" stroke-linecap="round"/>
<path id="Vector 1148" d="M41 81C44.2 79 45 76.8333 45 76" stroke="#B70000" stroke-linecap="round"/>
<path id="Vector 84" d="M64.2602 12.518C62.7797 12.8608 58.1747 22.4294 60.5406 29.469C61.0799 31.0737 62.6114 34.7143 63.4954 36.0448C70.6454 29.7605 65.685 14.3269 64.2602 12.518Z" fill="#00B187" stroke="#009773" stroke-linecap="round"/>
<path id="Vector 1118" d="M46.7013 20.2486C45.966 21.5786 49.9997 31.4016 56.8155 34.3509C58.3692 35.0233 62.1 36.3196 63.6804 36.5522C56.8155 31.991 48.9991 20.3992 46.7013 20.2486Z" fill="#00B187" stroke="#009773" stroke-linecap="round"/>
<path id="Vector 1119" d="M80.3138 20.2486C81.0491 21.5786 77.0155 31.4016 70.1996 34.3509C68.6459 35.0233 64.9151 36.3196 63.3348 36.5522C70.1996 31.991 78.016 20.3992 80.3138 20.2486Z" fill="#00B187" stroke="#009773" stroke-linecap="round"/>
<path id="Vector 1120" d="M86.8702 35.675C86.5097 37.1512 76.8869 41.6417 69.876 39.1918C68.2778 38.6334 64.6558 37.0585 63.336 36.1587C71.4752 37.4564 85.0784 34.2286 86.8702 35.675Z" fill="#00B187" stroke="#009773" stroke-linecap="round"/>
<path id="Vector 1149" d="M53.9733 43.1484C51.8543 44.2848 49.5563 47.7955 51.8495 46.6782C54.7159 45.2817 55.0945 42.7581 53.9733 43.1484Z" fill="#FFBF1C" stroke="#FFBF1C" stroke-linecap="round"/>
<path id="Vector 1150" d="M38.8478 46.1484C36.7288 47.2848 34.4308 50.7955 36.724 49.6782C39.5904 48.2817 39.969 45.7581 38.8478 46.1484Z" fill="#FFBF1C" stroke="#FFBF1C" stroke-linecap="round"/>
<path id="Vector 1151" d="M40.8478 62.1484C38.7288 63.2848 36.4308 66.7955 38.724 65.6782C41.5904 64.2817 41.969 61.7581 40.8478 62.1484Z" fill="#FFBF1C" stroke="#FFBF1C" stroke-linecap="round"/>
<path id="Vector 1152" d="M54.8478 54.1484C52.7288 55.2848 50.4308 58.7955 52.724 57.6782C55.5904 56.2817 55.969 53.7581 54.8478 54.1484Z" fill="#FFBF1C" stroke="#FFBF1C" stroke-linecap="round"/>
<path id="Vector 1153" d="M69.8478 48.1484C67.7288 49.2848 65.4308 52.7955 67.724 51.6782C70.5904 50.2817 70.969 47.7581 69.8478 48.1484Z" fill="#FFBF1C" stroke="#FFBF1C" stroke-linecap="round"/>
<path id="Vector 1154" d="M72.8478 61.1484C70.7288 62.2848 68.4308 65.7955 70.724 64.6782C73.5904 63.2817 73.969 60.7581 72.8478 61.1484Z" fill="#FFBF1C" stroke="#FFBF1C" stroke-linecap="round"/>
<path id="Vector 1155" d="M55.8478 69.1484C53.7288 70.2848 51.4308 73.7955 53.724 72.6782C56.5904 71.2817 56.969 68.7581 55.8478 69.1484Z" fill="#FFBF1C" stroke="#FFBF1C" stroke-linecap="round"/>
<path id="Vector 1156" d="M42.8478 75.1484C40.7288 76.2848 38.4308 79.7955 40.724 78.6782C43.5904 77.2817 43.969 74.7581 42.8478 75.1484Z" fill="#FFBF1C" stroke="#FFBF1C" stroke-linecap="round"/>
<path id="Vector 1157" d="M55.8478 82.1484C53.7288 83.2848 51.4308 86.7955 53.724 85.6782C56.5904 84.2817 56.969 81.7581 55.8478 82.1484Z" fill="#FFBF1C" stroke="#FFBF1C" stroke-linecap="round"/>
<path id="Vector 1158" d="M70.8478 74.1484C68.7288 75.2848 66.4308 78.7955 68.724 77.6782C71.5904 76.2817 71.969 73.7581 70.8478 74.1484Z" fill="#FFBF1C" stroke="#FFBF1C" stroke-linecap="round"/>
</g>
</svg>
