<svg width="185" height="185" viewBox="0 0 185 185" fill="none" xmlns="http://www.w3.org/2000/svg">
<rect width="185" height="185" fill="#F3F6F6"/>
<path d="M80.6609 46.4793C80.6609 47.8096 80.3975 49.9683 81.4837 50.9459C82.0617 51.4661 82.4143 50.2663 82.6591 49.8175C83.3233 48.5999 84.1845 47.632 85.1863 46.6673C85.8378 46.04 84.8736 46.1619 84.4223 46.1619C83.6209 46.1619 82.7615 46.4507 82.0362 46.7731C81.5864 46.973 81.613 47.2591 81.613 47.7428C81.613 48.54 82.1118 48.4738 82.3535 47.7487" stroke="#787878" stroke-width="2.3125" stroke-linecap="round"/>
<path d="M92.2807 50.2653C90.4959 49.1575 86.2199 43.3587 87.8008 44.742C89.1992 44.742 90.5423 44.9087 91.8204 44.3277C93.0039 43.7898 95.1989 43.6397 96.4999 43.9288C99.4179 44.5773 102.851 44.5607 105.604 45.8649C109.757 47.8321 115.644 47.2017 119.56 49.719C122.274 51.4638 122.86 53.9219 121.063 56.7459C119.522 59.1688 119.39 57.8641 119.56 56.3409C119.731 54.7958 119.007 54.0909 119.007 52.4746C119.007 48.5816 114.052 50.5479 111.771 51.2607C106.006 53.332 103.38 53.1878 99.0519 53.1878C96.6523 53.1878 94.2965 51.5164 92.2807 50.2653Z" fill="#787878" stroke="#787878" stroke-width="2.3125" stroke-linecap="round"/>
<path d="M33.7829 152.431C38.5763 150.885 43.1673 149.406 48.2549 149.653C52.9059 148.375 59.4881 147.635 64.2792 147.963C77.7191 148.885 90.9119 145.45 104.355 145.031C114.575 144.713 125.285 145.766 135.454 146.829C144.205 147.744 153.619 148.759 161.747 152.429C167.024 154.812 170.038 158.074 169.04 163.957C168.293 168.354 163.207 170.187 159.623 171.343C154.781 172.904 148.487 171.87 143.47 171.526C134.909 170.938 126.496 172.335 117.87 171.629C107.281 170.762 97.1583 170.315 86.4812 170.663C80.3453 170.863 74.0804 170.899 67.9479 170.528C62.9798 170.228 58.5567 170.955 53.6321 171.406C48.2992 171.893 6.03271 176.375 18.2885 161.078C22.1182 156.298 28.1253 154.256 33.7829 152.431Z" fill="#DEA44C" stroke="#DEA44C" stroke-width="4.625" stroke-linecap="round"/>
<path d="M81.1514 34.1614C82.0234 34.1614 83.0015 33.5175 83.8751 33.3233C85.8805 32.8777 87.7839 32.4339 89.8346 32.171C94.9627 31.5136 100.439 31.0785 105.595 31.6007C107.571 31.8007 109.416 32.0425 111.333 32.6017C112.738 33.0115 119.865 35.4584 121.792 37.3854" stroke="#00C596" stroke-width="3.85417" stroke-linecap="round"/>
<path d="M107.624 100.333C104.833 92.8849 103.1 91.6279 100.882 87.2713C100.882 87.2713 92.885 74.4641 95.1976 73.6537C97.5102 72.8432 97.6489 72.8432 99.4373 72.8432C100.82 73.9188 102.058 74.83 103.291 75.9266C104.66 77.1432 107.403 76.9257 108.687 75.9266C110.286 74.6834 111.186 73.8625 111.385 72.0724C111.544 70.6413 111.392 66.5884 112.541 65.5543C113.34 64.8358 118.364 65.2471 119.094 65.5543C126.98 67.2688 130.036 69.0498 135.666 73.6537C141.145 77.6103 146.073 88.2599 146.073 88.2599C146.073 88.2599 151.346 101.048 153.01 106.374C155.284 113.652 154.445 123.614 154.166 131.128C153.964 136.599 154.166 138.337 151.854 140.852C149.042 142.414 142.043 142.989 135.666 142.989C134.51 142.989 134.873 133.177 133.547 127.546C133.428 127.147 131.413 123.787 131.255 124.342C131.255 124.342 131.472 130.923 130.27 134.51C129.381 137.167 126.916 140.852 126.916 140.852C125.398 141.611 113.209 139.602 113.209 138.337V122.917C113.209 115.258 110.206 109.072 107.624 100.333Z" fill="#00C596" stroke="#00C596" stroke-width="2.3125" stroke-linecap="round"/>
<path d="M115.625 93.2574C115.24 97.1115 112.682 97.4719 110.615 98.6532L94.4272 104.82L106.76 107.917C110.358 106.375 117.783 103.215 118.708 102.906C119.865 102.521 120.635 100.979 121.406 100.208C122.023 99.5917 122.691 90.1875 122.948 85.5625L116.379 86.4317C116.379 89.0178 115.625 93.2574 115.625 93.2574Z" fill="#F3F6F6"/>
<path d="M80.981 49.168C80.981 56.2899 84.625 63.9533 90.2274 68.4006C97.0615 73.8256 107.144 72.631 111.679 65.0719" stroke="#404040" stroke-width="2.3125" stroke-linecap="round"/>
<path d="M113.898 51.3872C115.732 49.7569 117.88 52.2764 118.419 53.894C119.702 57.7432 117.152 59.9689 114.638 62.483" stroke="#404040" stroke-width="2.3125" stroke-linecap="round"/>
<path d="M86.3335 44.708C86.7189 45.8643 87.3228 47.1371 87.471 47.3409C91.0177 52.2176 94.1691 53.3977 99.9258 54.5119" stroke="#404040" stroke-width="2.3125" stroke-linecap="round"/>
<path d="M98.2271 46.0205C102.905 49.183 107.365 51.9648 113.088 51.9648" stroke="#404040" stroke-width="2.3125" stroke-linecap="round"/>
<path d="M82.5173 34.9814C79.435 34.9814 75.7047 39.2465 73.6008 41.3504C71.6529 43.2983 68.2071 46.4455 72.5629 46.4455C77.5852 46.4455 82.0654 43.9893 86.9992 43.8979C91.3138 43.818 95.2917 43.2502 99.5955 43.9923C105.342 44.9831 110.975 47.0412 116.674 48.3562C120.632 49.2697 126.12 51.4263 130.261 50.2433C132.13 49.709 120.494 37.0879 118.608 35.8306" stroke="#404040" stroke-width="2.3125" stroke-linecap="round"/>
<path d="M78.271 35.8297C78.271 37.2029 78.6117 33.0534 79.2145 31.8196C80.3879 29.4184 82.2927 27.1603 84.3097 25.4035C89.4473 20.9288 96.2153 19.2705 102.874 19.2705C109.019 19.2705 113.132 20.5888 117.57 25.0261C122.334 29.7909 123.278 34.2144 123.278 40.9248" stroke="#404040" stroke-width="2.3125" stroke-linecap="round"/>
<path d="M122.854 51.54C123.515 56.8281 121.342 60.7283 115.636 62.1549" stroke="#404040" stroke-width="2.3125" stroke-linecap="round"/>
<path d="M89.7354 54.9365C89.7354 56.8169 89.7892 58.6027 90.1599 60.4563" stroke="#404040" stroke-width="2.3125" stroke-linecap="round"/>
<path d="M98.2273 55.3613C98.2273 57.1204 98.1011 58.8041 98.6519 60.4565" stroke="#404040" stroke-width="2.3125" stroke-linecap="round"/>
<path d="M98.2273 64.7026C96.1549 64.7026 91.7576 63.8966 94.1936 67.4153C96.7187 71.0627 97.0054 67.571 98.2273 65.1272" stroke="#404040" stroke-width="2.3125" stroke-linecap="round"/>
<path d="M101.535 73.4667C102.813 74.6026 105.104 75.2652 106.731 74.4516C109.297 73.1687 110.093 70.3177 110.093 67.6592" stroke="#404040" stroke-width="2.3125" stroke-linecap="round"/>
<path d="M113.15 80.6669C113.15 76.4567 114.829 68.5084 120.486 70.716C122.719 71.8328 124.452 75.5452 125.24 77.6782C126.647 81.4856 125.905 84.9259 121.708 85.6254C119.255 86.0343 116.874 86.4518 114.373 86.3046C113.149 86.2326 113.15 81.4477 113.15 80.6903L113.15 80.6669Z" fill="#F3F6F6" stroke="#404040" stroke-width="2.3125" stroke-linecap="round"/>
<path d="M100.979 109.942L117.167 103.775C119.234 102.594 121.792 102.233 122.177 98.3791C122.177 98.3791 122.931 87.9728 122.931 85.3867" stroke="#404040" stroke-width="2.3125" stroke-linecap="round"/>
<path d="M94.4272 104.82C100.749 102.412 110.615 98.6531 110.615 98.6531C112.682 97.4718 115.24 97.1115 115.625 93.2573C115.625 93.2573 116.379 89.0177 116.379 86.4316" stroke="#404040" stroke-width="2.3125" stroke-linecap="round"/>
<path d="M115.29 65.2139C120.955 65.2139 126.183 66.1023 131.014 69.3233C134.732 71.8017 137.301 74.5626 139.878 78.1704C142.518 81.8665 145.79 86.025 147.621 90.2099C150.792 97.4559 153.16 104.191 154.04 112.115C154.479 116.065 154.108 120.252 154.108 124.223C154.108 127.799 154.537 131.7 153.735 135.21C153.065 138.141 154.193 140.556 150.678 141.561C148.008 142.324 144.937 142.351 142.187 142.851C140.224 143.208 138.375 143.462 136.38 143.462C134.392 143.462 134.523 141.519 134.088 139.778C133.463 137.28 133.101 134.849 132.338 132.391C131.826 130.739 131.854 128.936 131.337 127.28C130.97 126.108 130.267 124.499 130.267 123.289" stroke="#404040" stroke-width="2.3125" stroke-linecap="round"/>
<path d="M96.3389 75.9121C96.3389 78.4313 98.1268 80.7096 99.0898 83.0102C99.8841 84.9076 101.218 86.8876 102.316 88.6139C104.278 91.6973 105.089 95.4956 106.426 98.8365" stroke="#404040" stroke-width="2.3125" stroke-linecap="round"/>
<path d="M108.884 107.395C108.884 109.486 109.932 111.475 110.123 113.576C110.405 116.678 111.329 119.743 111.329 122.881C111.329 127.148 111.023 131.344 111.023 135.583C111.023 137.88 110.26 140.133 112.891 140.864C115.866 141.691 119.192 142.24 122.265 142.24C124.066 142.24 125.464 143.048 127.07 141.798C128.22 140.904 129.143 139.296 129.736 137.96C130.357 136.564 130.891 134.435 130.891 132.917C130.891 131.425 131.503 130.203 131.503 128.791" stroke="#404040" stroke-width="2.3125" stroke-linecap="round"/>
<path d="M113.778 147.894C113.541 146.354 112.089 142.85 112.539 142.85L119.094 142.85C121.517 142.85 124.394 142.375 125.646 144.629C126.514 146.192 125.556 150.859 125.359 152.632C125.148 154.537 124.765 156.347 124.765 158.286C124.765 159.027 124.87 161.142 124.154 161.564C119.957 164.032 114.158 163.17 109.414 163.024C103.734 162.849 100.214 158.343 102.316 152.937C103.904 148.853 110.581 148.832 113.897 150.339C114.834 150.765 113.85 148.357 113.778 147.894Z" fill="#F3F6F6" stroke="#404040" stroke-width="2.3125" stroke-linecap="round"/>
<path d="M140.566 147.941C140.144 146.442 138.277 143.141 138.723 143.086L145.23 142.29C147.635 141.996 150.433 141.174 151.95 143.26C153.001 144.705 152.617 149.455 152.637 151.238C152.658 153.155 152.498 154.998 152.734 156.923C152.824 157.658 153.184 159.745 152.525 160.25C148.659 163.21 142.798 163.058 138.072 163.489C132.412 164.006 128.371 159.96 129.801 154.339C130.882 150.093 137.507 149.261 140.981 150.354C141.962 150.663 140.693 148.393 140.566 147.941Z" fill="#F3F6F6" stroke="#404040" stroke-width="2.3125" stroke-linecap="round"/>
<path d="M90.6447 104.468C88.1226 104.468 83.4067 104.374 84.6708 108.166" stroke="#404040" stroke-width="2.3125" stroke-linecap="round"/>
<path d="M87.8004 110.157C83.6373 110.324 84.6773 118.177 88.6696 118.676C94.3516 119.386 98.3545 116.842 99.4639 111.295" stroke="#404040" stroke-width="2.3125" stroke-linecap="round"/>
<path d="M65.4411 154.385C57.9735 151.771 49.1668 150.195 41.2727 150.195L40.4688 144.916L56.2708 142.989L57.0419 136.921C57.0419 136.921 57.5583 134.045 58.1981 132.296C61.9596 122.018 74.771 116.494 82.0939 117.65C87.0557 118.434 91.7294 126.9 91.7294 126.9C91.7294 126.9 98.4768 136.029 95.7376 139.377C93.6089 141.979 90.5018 143.998 87.9837 146.287C84.6024 149.361 81.1352 153.07 77.2908 155.542C74.4166 157.389 68.4163 155.426 65.4411 154.385Z" fill="#F3F6F6"/>
<path d="M41.2725 150.195C49.1665 150.195 57.9732 151.771 65.4408 154.385C68.4161 155.426 74.4163 157.389 77.2906 155.542C81.135 153.07 84.6022 149.361 87.9834 146.287C90.5015 143.998 93.6087 141.979 95.7373 139.377C98.4765 136.029 91.7291 126.9 91.7291 126.9C91.7291 126.9 87.0554 118.434 82.0937 117.65C74.7708 116.494 61.9594 122.018 58.1979 132.296C57.558 134.045 57.0416 136.921 57.0416 136.921" stroke="#404040" stroke-width="2.3125" stroke-linecap="round"/>
<path d="M35.9534 143.283C37.0048 143.724 38.6095 143.955 39.5064 144.672L40.5782 151.103C39.5532 152.641 38.6733 155.58 36.4695 155.738C34.2741 155.895 33.4914 153.561 32.718 151.778C31.6288 149.267 31.506 146.68 31.6561 143.977C31.7196 142.835 31.8126 142.528 32.8867 142.528C34.0259 142.528 34.9081 142.844 35.9534 143.283Z" fill="#F3F6F6" stroke="#404040" stroke-width="2.3125" stroke-linecap="round"/>
<path d="M40.3433 149.495C40.3433 148.789 39.3267 145.561 40.1646 145.068C41.7216 144.152 43.3192 143.421 45.1567 143.421C47.5338 143.421 50.0104 143.421 52.4015 143.421C53.7276 143.421 54.9532 143.67 56.2423 143.957C57.0891 144.145 58.1023 144.85 58.9219 144.85" stroke="#404040" stroke-width="2.3125" stroke-linecap="round"/>
<path d="M58.3861 144.314C56.9696 144.157 55.1738 142.044 54.1186 141.158C51.9847 139.367 50.313 137.063 48.6502 134.846C44.6147 129.465 43.5309 122.273 46.2503 116.494C47.7045 113.404 50.7368 109.52 53.5733 107.629C56.8388 105.452 60.1496 103.63 63.9795 102.619C68.2092 101.503 73.3558 102.154 77.6198 103.237C80.3804 103.938 82.291 105.565 84.6463 106.978" stroke="#404040" stroke-width="2.3125" stroke-linecap="round"/>
<path d="M56.7029 136.969C52.6674 131.589 49.3124 126.128 52.0318 120.349C53.4861 117.259 55.7474 114.146 58.5839 112.255C61.8494 110.078 63.9798 109.172 68.6048 108.401C73.6152 108.015 77.4693 108.015 84.0214 112.956" stroke="#404040" stroke-width="2.3125" stroke-linecap="round"/>
<path d="M90.6235 120.151C90.8225 119.819 91.1111 121.493 91.1612 121.764C91.239 122.184 91.4568 122.913 91.2026 123.294" stroke="#404040" stroke-width="2.3125" stroke-linecap="round"/>
<path d="M64.0155 134.409C61.7845 133.913 63.9132 129.064 65.3775 128.973C66.8318 126.791 70.2201 128.104 72.5488 127.925C74.1978 127.798 75.4542 126.458 77.2054 126.458C78.7016 126.458 74.9149 129.141 74.5046 129.496C72.7578 131.01 70.4524 131.478 68.7303 132.954C67.5139 133.997 65.6395 134.77 64.0155 134.409Z" fill="#00AAD2" stroke="#00AAD2" stroke-width="2.3125" stroke-linecap="round"/>
<path d="M94.9248 119.323C95.254 120.896 95.9412 122.361 95.0902 123.937C94.5733 124.895 93.8362 125.636 93.353 126.603" stroke="#404040" stroke-width="2.3125" stroke-linecap="round"/>
<path d="M64.2162 129.02C63.1305 130.054 61.7741 132.338 62.084 133.965C63.5939 135.379 64.8032 136.135 66.6772 135.379C69.1429 134.384 72.2191 132.398 74.368 130.863C76.8009 129.125 79.3502 127.63 80.8433 124.93C81.3926 123.936 81.5413 121.861 80.1172 121.511C78.4972 121.111 76.2526 121.752 74.7707 122.275C72.8639 122.948 69.7603 124.93 64.2162 129.02Z" stroke="#404040" stroke-width="2.3125" stroke-linecap="round"/>
<path d="M94.0112 71.8496C90.9099 71.8496 90.1233 84.276 91.7331 85.2229C94.8049 87.0298 97.5736 86.6572 101.225 86.6572" stroke="#404040" stroke-width="2.3125" stroke-linecap="round"/>
<path d="M95.1978 86.4316C97.5103 92.2129 100.722 94.6426 101.984 98.4274" stroke="#404040" stroke-width="2.3125" stroke-linecap="round"/>
<path d="M113.922 32.6597C115.105 30.1474 116.337 28.2175 118.803 26.5583C121.363 24.8362 128.02 22.8334 130.82 25.2025C133.45 27.4277 130.35 30.2192 127.905 30.2192C125.713 30.2192 121.854 29.0902 121.854 26.2533" stroke="#00C596" stroke-width="3.85417" stroke-linecap="round"/>
<path d="M25.9862 151.241C24.843 151.241 24.7813 151.987 24.5649 153.069" stroke="#00AAD2" stroke-width="2.3125" stroke-linecap="round"/>
<path d="M28.4226 156.114C28.3511 156.686 27.8135 157.13 27.8135 157.942" stroke="#00AAD2" stroke-width="2.3125" stroke-linecap="round"/>
<path d="M23.9559 163.017C23.5751 163.064 23.7529 164.16 23.7529 164.438" stroke="#00AAD2" stroke-width="2.3125" stroke-linecap="round"/>
<path d="M29.6405 162.408C29.5152 163.142 29.5239 163.596 29.8436 164.236" stroke="#00AAD2" stroke-width="2.3125" stroke-linecap="round"/>
<path d="M33.2954 158.348V159.363" stroke="#00AAD2" stroke-width="2.3125" stroke-linecap="round"/>
<path d="M34.7168 164.235C34.9869 164.887 35.1352 165.299 35.732 165.657" stroke="#00AAD2" stroke-width="2.3125" stroke-linecap="round"/>
</svg>
