<svg width="91" height="84" viewBox="0 0 91 84" fill="none" xmlns="http://www.w3.org/2000/svg">
<path fill-rule="evenodd" clip-rule="evenodd" d="M58.5168 26.0566C64.1939 24.5355 70.2426 25.3318 75.3325 28.2704L84.19 33.3841C87.6144 35.3612 88.7876 39.7398 86.8105 43.1642L81.6966 52.0215C78.7579 57.1113 73.9177 60.8251 68.2407 62.3462C62.5637 63.8673 56.5149 63.071 51.425 60.1324L39.0244 52.9731C37.5569 52.1258 37.054 50.2493 37.9014 48.7817L45.0609 36.3813C47.9996 31.2915 52.8398 27.5777 58.5168 26.0566ZM72.2641 33.5849C68.5837 31.4601 64.21 30.8843 60.1051 31.9842C56.0002 33.0841 52.5004 35.7694 50.3755 39.4497L46.9199 45.4348L65.8446 40.3642C67.4815 39.9256 69.164 40.897 69.6026 42.5339C70.0412 44.1707 69.0697 45.8532 67.4328 46.2918L48.5083 51.3624L54.4935 54.8179C58.1738 56.9427 62.5475 57.5185 66.6524 56.4186C70.7574 55.3187 74.2571 52.6334 76.382 48.9531L81.4959 40.0958C81.7783 39.6066 81.6107 38.9811 81.1215 38.6987L72.2641 33.5849Z" fill="#00CA9A"/>
<path fill-rule="evenodd" clip-rule="evenodd" d="M22.3436 9.32893C18.1878 13.4847 15.853 19.1212 15.853 24.9984C15.853 30.8755 18.1877 36.5119 22.3435 40.6677L31.4247 49.7488L31.4248 23.6262C31.4248 21.9316 32.7986 20.5579 34.4932 20.5579C36.1878 20.5579 37.5616 21.9316 37.5616 23.6262L37.5615 50.0391L46.933 40.6678C51.0888 36.512 53.4236 30.8755 53.4236 24.9984C53.4236 19.1212 51.0889 13.4848 46.9331 9.329L39.7009 2.09697C36.9049 -0.698995 32.3717 -0.698985 29.5757 2.09697L22.3436 9.32893Z" fill="#00CA9A"/>
<path fill-rule="evenodd" clip-rule="evenodd" d="M19.2092 47.4327C19.8445 49.0037 19.0858 50.7923 17.5148 51.4275C9.76429 54.5612 6.13673 59.0233 6.13673 62.9447C6.13673 66.2299 8.63481 69.8882 14.1928 72.9042C19.6313 75.8553 27.3545 77.7751 36.0533 77.7751C47.8026 77.7751 57.5886 74.2879 62.526 69.6563C63.762 68.497 65.7038 68.559 66.8631 69.795C68.0225 71.0309 67.9604 72.9727 66.7245 74.1321C60.2554 80.2003 48.7219 83.9119 36.0533 83.9119C26.535 83.9119 17.7657 81.8249 11.266 78.298C4.88584 74.8359 0 69.5447 0 62.9447C0 55.1047 6.82526 49.1302 15.2144 45.7382C16.7855 45.103 18.574 45.8616 19.2092 47.4327Z" fill="#00CA9A"/>
</svg>
