<svg width="140" height="105" viewBox="0 0 140 105" fill="none" xmlns="http://www.w3.org/2000/svg">
<g clip-path="url(#clip0_771_21894)">
<rect width="140" height="105" rx="8" fill="white"/>
<path d="M43.0999 46.2972C43.0999 48.0229 42.7582 50.8235 44.1673 52.0917C44.9172 52.7665 45.3746 51.21 45.6922 50.6278C46.5538 49.0482 47.671 47.7926 48.9707 46.5411C49.8159 45.7273 48.5651 45.8854 47.9795 45.8854C46.94 45.8854 45.825 46.2602 44.884 46.6784C44.3005 46.9377 44.3351 47.3088 44.3351 47.9364C44.3351 48.9706 44.9822 48.8847 45.2957 47.944" stroke="#787878" stroke-width="3" stroke-linecap="round"/>
<path d="M58.1744 51.2087C55.859 49.7716 50.3117 42.2488 52.3626 44.0433C54.1768 44.0433 55.9192 44.2596 57.5773 43.5059C59.1126 42.808 61.9602 42.6133 63.648 42.9884C67.4335 43.8297 71.8868 43.8082 75.4586 45.5001C80.8462 48.0521 88.4836 47.2343 93.5635 50.5001C97.0845 52.7636 97.8455 55.9524 95.5141 59.616C93.5139 62.7593 93.3438 61.0667 93.5634 59.0906C93.7861 57.0861 92.8468 56.1717 92.8468 54.0748C92.8468 49.0245 86.4177 51.5753 83.4586 52.5001C75.9801 55.1871 72.5734 55.0001 66.9586 55.0001C63.8457 55.0001 60.7894 52.8318 58.1744 51.2087Z" fill="#787878" stroke="#787878" stroke-width="3" stroke-linecap="round"/>
<path d="M43.7363 30.3177C44.8676 30.3177 46.1365 29.4823 47.2698 29.2305C49.8714 28.6523 52.3407 28.0766 55.0011 27.7356C61.6537 26.8827 68.7578 26.3183 75.4468 26.9957C78.01 27.2552 80.4038 27.5688 82.8912 28.2943C84.7142 28.826 93.9592 32.0002 96.4592 34.5002" stroke="#00C596" stroke-width="5" stroke-linecap="round"/>
<path d="M43.5156 49.7852C43.5156 59.0244 48.2431 68.9662 55.511 74.7356C64.3768 81.7734 77.4566 80.2237 83.3403 70.4172" stroke="#404040" stroke-width="3" stroke-linecap="round"/>
<path d="M86.2188 52.6643C88.598 50.5492 91.3836 53.8178 92.0832 55.9164C93.7476 60.9098 90.4398 63.7973 87.1784 67.0588" stroke="#404040" stroke-width="3" stroke-linecap="round"/>
<path d="M42.1958 52.6487C39.2646 51.4069 37.6722 55.3953 37.6815 57.6074C37.7036 62.8709 41.7619 64.5472 45.8959 66.5926" stroke="#404040" stroke-width="3" stroke-linecap="round"/>
<path d="M50.459 44C50.959 45.5 51.7424 47.1513 51.9347 47.4157C56.5358 53.7422 60.6241 55.2731 68.0922 56.7185" stroke="#404040" stroke-width="3" stroke-linecap="round"/>
<path d="M65.8887 45.7021C71.9572 49.8048 77.7427 53.4137 85.1676 53.4137" stroke="#404040" stroke-width="3" stroke-linecap="round"/>
<path d="M40 32.4822C40 34.2636 40.442 28.8805 41.2241 27.28C42.7462 24.1649 45.2173 21.2354 47.834 18.9564C54.499 13.1513 63.279 11 71.9173 11C79.8898 11 85.2255 12.7103 90.982 18.4667C97.1633 24.6481 98.3875 30.3866 98.3875 39.0921" stroke="#404040" stroke-width="3" stroke-linecap="round"/>
<path d="M97.8367 52.8623C98.6943 59.7225 95.8757 64.7822 88.4727 66.6329" stroke="#404040" stroke-width="3" stroke-linecap="round"/>
<path d="M62 57.2695C62 59.709 62.0699 62.0257 62.5508 64.4303" stroke="#404040" stroke-width="3" stroke-linecap="round"/>
<path d="M73.1431 58C73.1431 60.282 72.9794 62.4663 73.6939 64.6099" stroke="#404040" stroke-width="3" stroke-linecap="round"/>
<path d="M71.1612 69.9382C68.4728 69.9382 62.7681 68.8925 65.9283 73.4573C69.2041 78.1891 69.576 73.6594 71.1612 70.489" stroke="#404040" stroke-width="3" stroke-linecap="round"/>
<path d="M86.25 28.369C87.7838 25.1098 89.3826 22.6062 92.5823 20.4537C95.9032 18.2196 104.539 15.6214 108.171 18.6947C111.583 21.5816 107.561 25.2029 104.389 25.2029C101.546 25.2029 96.5399 23.7383 96.5399 20.0579" stroke="#00C596" stroke-width="5" stroke-linecap="round"/>
<path d="M46.6451 32C42.6464 32 37.8072 37.533 35.0778 40.2624C32.5508 42.7894 28.0806 46.8723 33.7313 46.8723C40.2467 46.8723 46.0589 43.6859 52.4594 43.5673C58.0568 43.4637 63.2173 42.7271 68.8006 43.6897C76.256 44.9752 83.5635 47.645 90.956 49.351C96.0917 50.5362 103.211 53.3339 108.582 51.7991C111.008 51.1061 95.9119 34.7327 93.4653 33.1017" stroke="#404040" stroke-width="3" stroke-linecap="round"/>
<path d="M54.001 108.5C53.5014 106 52.5005 83.9976 53 80.9934C53 80.9934 55.5 80.5 59.5 80.5C63.5 80.5 62.6814 80.9934 65.0014 80.9934C66.7954 82.3888 67.9009 83.0774 69.5014 84.5C71.2771 86.0784 75.001 84.2896 76.6674 82.9934C78.7409 81.3806 78.2439 80.8225 78.5019 78.5003C78.7082 76.6437 84.0019 77.5 88.0019 77C90.5019 77 92.0557 103.099 93.0022 103.497C96.0012 110 59.0009 111 54.001 108.5Z" fill="#00C596" stroke="#00C596" stroke-width="3" stroke-linecap="round"/>
<path d="M65 79C65.5 81 67.8494 84.4612 72 84C76.5 83.5 78.1028 80.4488 78.1028 77" stroke="#404040" stroke-width="3" stroke-linecap="round"/>
<path d="M64.5 79.5004C63.7 79.1004 52.5424 79.0001 52.4972 79.4999C51.9996 85.0002 49.3482 111.461 53.4988 111C57.9988 110.5 94.9972 109.449 94.9972 106C94.3315 96.6667 92.5081 76.7023 89 76.0001C86.5 75.4998 81 75.5001 79 76.0001" stroke="#404040" stroke-width="3" stroke-linecap="round"/>
<path d="M51.9992 79.5C47.976 79.5 37.9114 93.7716 39.9997 95C43.9848 97.3442 45.7628 97.5 50.5 97.5" stroke="#404040" stroke-width="3" stroke-linecap="round"/>
<path d="M47.0004 98C46 101 45.9119 108.772 48.0002 110" stroke="#404040" stroke-width="3" stroke-linecap="round"/>
<path d="M99.9996 95C101 98 101.088 105.772 98.9998 107" stroke="#404040" stroke-width="3" stroke-linecap="round"/>
<path d="M90.0003 76C94.0235 76 107.088 89.2716 105 90.5C101.015 92.8442 98.7376 94.5 94.0005 94.5" stroke="#404040" stroke-width="3" stroke-linecap="round"/>
</g>
<defs>
<clipPath id="clip0_771_21894">
<rect width="140" height="105" rx="8" fill="white"/>
</clipPath>
</defs>
</svg>
